<?xml version="1.0" encoding="utf-8"?>
<!-- Generator: Adobe Illustrator 27.6.1, SVG Export Plug-In . SVG Version: 6.00 Build 0)  -->
<svg version="1.1" id="Layer_1" xmlns="http://www.w3.org/2000/svg" xmlns:xlink="http://www.w3.org/1999/xlink" x="0px" y="0px"
	 viewBox="0 0 201.8 48.1" style="enable-background:new 0 0 201.8 48.1;" xml:space="preserve">
<style type="text/css">
	.st0{fill:#1CC016;}
	.st1{fill:#FFFFFF;}
</style>
<polygon class="st0" points="176.9,24.1 200.7,0.3 176.5,0.1 0,0.1 0,48 176.5,48 200.7,48 "/>
<g>
	<path class="st1" d="M47.6,19.7c0-0.5-0.2-0.9-0.6-1.2c-0.4-0.3-0.9-0.4-1.5-0.4c-0.4,0-0.8,0.1-1.1,0.2c-0.3,0.1-0.5,0.3-0.7,0.5
		c-0.1,0.2-0.2,0.4-0.2,0.7c0,0.2,0,0.4,0.1,0.5c0.1,0.2,0.2,0.3,0.4,0.4c0.2,0.1,0.4,0.2,0.7,0.3c0.3,0.1,0.5,0.2,0.9,0.2l1.2,0.3
		c0.7,0.1,1.3,0.3,1.8,0.6c0.5,0.2,1,0.5,1.3,0.9c0.4,0.3,0.6,0.7,0.8,1.2c0.2,0.4,0.3,0.9,0.3,1.5c0,0.9-0.2,1.6-0.7,2.3
		c-0.4,0.6-1.1,1.1-1.9,1.4s-1.8,0.5-3,0.5s-2.2-0.2-3-0.5c-0.9-0.3-1.5-0.9-2-1.6s-0.7-1.6-0.7-2.7h3.2c0,0.4,0.1,0.8,0.4,1.1
		c0.2,0.3,0.5,0.5,0.9,0.7c0.4,0.2,0.8,0.2,1.3,0.2s0.8-0.1,1.2-0.2c0.3-0.1,0.6-0.3,0.7-0.5c0.2-0.2,0.3-0.5,0.3-0.7
		c0-0.3-0.1-0.5-0.2-0.7c-0.2-0.2-0.4-0.4-0.7-0.5s-0.7-0.3-1.2-0.4l-1.4-0.3c-1.2-0.3-2.1-0.7-2.8-1.3c-0.7-0.6-1-1.5-1-2.5
		c0-0.9,0.2-1.6,0.7-2.3c0.5-0.6,1.1-1.1,1.9-1.5s1.8-0.5,2.8-0.5c1.1,0,2,0.2,2.8,0.5c0.8,0.4,1.4,0.9,1.8,1.5
		c0.4,0.7,0.7,1.4,0.7,2.3H47.6z M57.6,29.6c-1.1,0-2-0.2-2.8-0.6s-1.4-1.1-1.8-1.8c-0.5-0.9-0.7-1.9-0.7-3s0.2-2,0.6-2.8
		c0.4-0.8,1-1.4,1.8-1.9s1.7-0.7,2.7-0.7c0.7,0,1.4,0.1,2,0.3c0.6,0.2,1.1,0.6,1.6,1c0.4,0.5,0.8,1,1,1.7s0.4,1.4,0.4,2.3v0.8h-9V23
		h6c0-0.4-0.1-0.7-0.3-0.9s-0.4-0.5-0.7-0.6c-0.3-0.2-0.6-0.2-1-0.2s-0.7,0.1-1,0.3c-0.3,0.2-0.5,0.4-0.7,0.7
		c-0.2,0.3-0.3,0.6-0.3,1v2c0,0.4,0.1,0.8,0.3,1.1c0.2,0.3,0.4,0.6,0.7,0.7s0.7,0.3,1.1,0.3c0.3,0,0.6,0,0.8-0.1s0.4-0.2,0.6-0.4
		c0.2-0.2,0.3-0.4,0.4-0.6l3,0.1c-0.1,0.7-0.4,1.3-0.8,1.8c-0.4,0.5-1,0.9-1.7,1.2C59.3,29.5,58.5,29.6,57.6,29.6z M67.5,15.5v13.9
		h-3.3V15.5H67.5z M69.6,29.4V19h3.3v10.4H69.6z M71.3,17.8c-0.5,0-0.9-0.2-1.2-0.5c-0.3-0.3-0.5-0.7-0.5-1.1s0.2-0.8,0.5-1.1
		c0.3-0.3,0.7-0.5,1.2-0.5s0.9,0.2,1.2,0.5c0.3,0.3,0.5,0.7,0.5,1.1c0,0.4-0.2,0.8-0.5,1.1C72.1,17.6,71.7,17.8,71.3,17.8z
		 M79.9,33.5c-1,0-1.8-0.1-2.5-0.4c-0.7-0.3-1.3-0.7-1.7-1.1c-0.4-0.5-0.6-1-0.7-1.6l3.1-0.2c0.1,0.2,0.2,0.4,0.3,0.6
		c0.2,0.2,0.4,0.3,0.6,0.4c0.3,0,0.6,0,1,0c0.6,0,1-0.1,1.4-0.4s0.5-0.7,0.5-1.4v-1.8h-0.1c-0.1,0.3-0.3,0.6-0.6,0.9
		c-0.3,0.3-0.6,0.5-1,0.6s-0.8,0.2-1.4,0.2c-0.8,0-1.5-0.2-2.1-0.5c-0.6-0.4-1.1-0.9-1.5-1.7c-0.4-0.7-0.6-1.7-0.6-2.9
		c0-1.2,0.2-2.2,0.6-3s0.9-1.4,1.5-1.8s1.3-0.6,2-0.6c0.5,0,1,0.1,1.4,0.3c0.4,0.2,0.7,0.4,1,0.7c0.3,0.3,0.4,0.6,0.6,0.9h0.1v-1.8
		h3.3v10.4c0,0.9-0.2,1.6-0.7,2.2c-0.4,0.6-1.1,1.1-1.9,1.4C81.9,33.4,80.9,33.5,79.9,33.5z M80,26.8c0.4,0,0.7-0.1,1-0.3
		c0.3-0.2,0.5-0.5,0.7-0.9s0.2-0.9,0.2-1.4c0-0.6-0.1-1.1-0.2-1.5S81.3,22,81,21.8c-0.3-0.2-0.6-0.3-1-0.3s-0.8,0.1-1,0.3
		c-0.3,0.2-0.5,0.5-0.7,1c-0.1,0.4-0.2,0.9-0.2,1.4c0,0.6,0.1,1,0.2,1.4s0.4,0.7,0.6,0.9C79.2,26.7,79.6,26.8,80,26.8z M92.1,29.6
		c-1.1,0-2-0.2-2.8-0.6s-1.4-1.1-1.8-1.8c-0.4-0.8-0.6-1.8-0.6-2.9s0.2-2,0.6-2.8s1-1.4,1.8-1.9s1.7-0.7,2.7-0.7
		c0.7,0,1.4,0.1,2,0.3c0.6,0.2,1.1,0.6,1.6,1c0.4,0.5,0.8,1,1,1.7s0.4,1.4,0.4,2.3V25h-9v-1.9h6c0-0.4-0.1-0.7-0.3-0.9
		s-0.4-0.5-0.7-0.6c-0.3-0.2-0.6-0.2-1-0.2s-0.7,0.1-1,0.3c-0.3,0.2-0.5,0.4-0.7,0.7c-0.2,0.3-0.3,0.6-0.3,1v2
		c0,0.4,0.1,0.8,0.3,1.1c0.2,0.3,0.4,0.6,0.7,0.7c0.3,0.2,0.7,0.3,1.1,0.3c0.3,0,0.6,0,0.8-0.1c0.2-0.1,0.4-0.2,0.6-0.4
		c0.2-0.2,0.3-0.4,0.4-0.6l3,0.1c-0.1,0.7-0.4,1.3-0.8,1.8s-1,0.9-1.7,1.2C93.9,29.5,93.1,29.6,92.1,29.6z M98.8,29.4V19h3.2v1.9
		h0.1c0.2-0.7,0.5-1.2,0.9-1.5s0.9-0.5,1.5-0.5c0.2,0,0.3,0,0.5,0s0.3,0,0.5,0.1v2.9c-0.2-0.1-0.4-0.1-0.6-0.1c-0.3,0-0.5,0-0.7,0
		c-0.4,0-0.7,0.1-1.1,0.3c-0.3,0.2-0.6,0.4-0.7,0.7c-0.2,0.3-0.3,0.7-0.3,1.1v5.7h-3.3V29.4z M123.5,20.5h-3.4
		c0-0.3-0.1-0.7-0.3-0.9c-0.1-0.3-0.3-0.5-0.6-0.7c-0.2-0.2-0.5-0.4-0.8-0.5s-0.7-0.2-1-0.2c-0.7,0-1.3,0.2-1.7,0.5
		c-0.5,0.3-0.9,0.8-1.1,1.4c-0.3,0.6-0.4,1.4-0.4,2.3s0.1,1.7,0.4,2.3c0.3,0.6,0.6,1.1,1.1,1.4s1.1,0.5,1.7,0.5c0.4,0,0.7,0,1-0.1
		s0.6-0.2,0.8-0.4c0.2-0.2,0.4-0.4,0.6-0.7c0.2-0.3,0.3-0.6,0.3-0.9h3.4c-0.1,0.6-0.2,1.2-0.5,1.8c-0.3,0.6-0.7,1.1-1.2,1.6
		s-1.1,0.9-1.9,1.2c-0.7,0.3-1.6,0.4-2.5,0.4c-1.3,0-2.4-0.3-3.4-0.8c-1-0.6-1.8-1.4-2.3-2.4c-0.6-1.1-0.9-2.4-0.9-3.9
		s0.3-2.8,0.9-3.9s1.4-1.9,2.4-2.4c1-0.6,2.1-0.8,3.3-0.8c0.8,0,1.6,0.1,2.3,0.4c0.7,0.2,1.3,0.6,1.9,1c0.5,0.4,1,1,1.3,1.6
		C123.2,19,123.4,19.7,123.5,20.5z M125.4,29.4V19h3.3v10.4C128.7,29.4,125.4,29.4,125.4,29.4z M127.1,17.8c-0.5,0-0.9-0.2-1.2-0.5
		c-0.3-0.3-0.5-0.7-0.5-1.1s0.2-0.8,0.5-1.1s0.7-0.5,1.2-0.5s0.9,0.2,1.2,0.5c0.3,0.3,0.5,0.7,0.5,1.1c0,0.4-0.2,0.8-0.5,1.1
		C128,17.6,127.6,17.8,127.1,17.8z M136.7,19v2.4h-6.6V19H136.7z M131.5,16.5h3.3v9.6c0,0.2,0,0.4,0.1,0.5c0.1,0.1,0.2,0.2,0.3,0.3
		c0.1,0,0.3,0.1,0.5,0.1c0.1,0,0.3,0,0.4,0c0.1,0,0.3,0,0.3-0.1l0.5,2.4c-0.2,0-0.4,0.1-0.7,0.2s-0.6,0.1-1,0.1
		c-0.8,0-1.4-0.1-2-0.3c-0.6-0.2-1-0.6-1.3-1c-0.3-0.5-0.4-1.1-0.4-1.8C131.5,26.5,131.5,16.5,131.5,16.5z M140.4,33.3
		c-0.4,0-0.8,0-1.1-0.1c-0.4-0.1-0.7-0.1-0.9-0.2l0.7-2.4c0.3,0.1,0.6,0.2,0.9,0.2s0.5,0,0.7-0.1s0.3-0.3,0.4-0.5l0.1-0.3l-3.7-10.8
		h3.5l1.9,7.4h0.1l1.9-7.4h3.5l-3.9,11.4c-0.2,0.6-0.5,1.1-0.8,1.5c-0.3,0.4-0.8,0.8-1.3,1S141.2,33.3,140.4,33.3z"/>
</g>
</svg>
