<?xml version="1.0" encoding="utf-8"?>
<!-- Generator: Adobe Illustrator 27.6.1, SVG Export Plug-In . SVG Version: 6.00 Build 0)  -->
<svg version="1.1" id="Layer_1" xmlns="http://www.w3.org/2000/svg" xmlns:xlink="http://www.w3.org/1999/xlink" x="0px" y="0px"
	 viewBox="0 0 125.5 48.1" style="enable-background:new 0 0 125.5 48.1;" xml:space="preserve">
<style type="text/css">
	.st0{fill:#EA5F30;}
	.st1{fill:#FFFFFF;}
</style>
<polygon class="st0" points="101.5,24.1 125.4,0.3 125.4,0.1 0,0.1 0,48 125.4,48 125.4,48 "/>
<g>
	<path class="st1" d="M51.7,17.1v14h-3.3V19.8h-5.2v11.3h-3.3v-14C39.9,17.1,51.7,17.1,51.7,17.1z M54.3,17.1h3.4v8.1h0.1l5.5-8.1
		h2.9v14h-3.4V23h-0.1l-5.6,8.1h-2.9L54.3,17.1L54.3,17.1z M76.9,31.1l-4.4-5.8h-0.8v5.8h-3.4v-14h3.4v5.4h0.5l4.3-5.4h4.2l-5.4,6.6
		l5.7,7.4C81,31.1,76.9,31.1,76.9,31.1z"/>
</g>
</svg>
