<?xml version="1.0" encoding="utf-8"?>
<!-- Generator: Adobe Illustrator 27.6.1, SVG Export Plug-In . SVG Version: 6.00 Build 0)  -->
<svg version="1.1" id="Layer_2_00000072251372232405608290000007850403461299979687_"
	 xmlns="http://www.w3.org/2000/svg" xmlns:xlink="http://www.w3.org/1999/xlink" x="0px" y="0px" viewBox="0 0 64 64"
	 style="enable-background:new 0 0 64 64;" xml:space="preserve">
<style type="text/css">
	.st0{fill-rule:evenodd;clip-rule:evenodd;fill:#FFFFFF;}
</style>
<path class="st0" d="M15.7,31.8c8.4-3.7,14.1-6.1,16.9-7.3c8-3.3,9.7-3.9,10.8-3.9c0.3,0,0.8,0.1,1.1,0.3c0.3,0.3,0.3,0.6,0.4,0.8
	c0.1,0.3,0.1,0.8,0.1,1.1c-0.4,4.6-2.3,15.7-3.2,20.8c-0.4,2.1-1.2,2.9-2,3c-1.7,0.2-3-1.1-4.6-2.1c-2.6-1.7-4-2.7-6.5-4.4
	c-2.9-1.9-1-2.9,0.6-4.6c0.4-0.4,7.8-7.2,8-7.8c0-0.1,0-0.3-0.2-0.5s-0.4-0.1-0.6-0.1c-0.3,0.1-4.4,2.7-12.2,8.1
	c-1.2,0.8-2.2,1.2-3.2,1.2c-1,0-3-0.6-4.5-1c-1.8-0.6-3.2-0.9-3.2-1.9C13.7,32.8,14.4,32.3,15.7,31.8z"/>
</svg>
