<?xml version="1.0" encoding="utf-8"?>
<!-- Generator: Adobe Illustrator 27.6.1, SVG Export Plug-In . SVG Version: 6.00 Build 0)  -->
<svg version="1.1" id="Layer_2_00000132085645730185467780000008854030768640757132_"
	 xmlns="http://www.w3.org/2000/svg" xmlns:xlink="http://www.w3.org/1999/xlink" x="0px" y="0px" viewBox="0 0 64 64"
	 style="enable-background:new 0 0 64 64;" xml:space="preserve">
<style type="text/css">
	.st0{fill:#F7AC3B;}
</style>
<g id="qUwELJ.tif_00000045595931613755569290000014441805728691396530_">
	<g>
		<path class="st0" d="M36.7,48.8c0-0.2,0.2-0.4,0.3-0.6c2.6-2.3,2.7-6.5,0.7-9.3c-0.8-1.2-1.9-2.1-3-3c-1.6-1.5-2.4-3.4-2.5-5.6
			c0-0.2,0-0.4-0.2-0.5c-0.2-0.1-0.3,0.1-0.4,0.3c-2,2.1-3.1,4.6-3.3,7.5c-0.1,0.8-0.1,1.6,0,2.4c0,0.3,0,0.3-0.3,0.2
			c-0.8-0.3-1.2-0.9-1.5-1.7c-0.1-0.2-0.1-0.6-0.4-0.7c-0.3,0-0.4,0.3-0.6,0.6c-0.5,0.9-0.8,2-0.9,3c-0.1,1.5,0,3,0.6,4.4
			c0.5,1.1,1.3,1.9,2.2,2.7c0.1,0.1,0.4,0.2,0.3,0.4c-0.1,0.3-0.4,0.1-0.6,0c-2.3-0.7-4.1-2-5.6-3.8c-1.9-2.4-2.7-5.1-2.5-8.2
			c0.2-1.7,0.7-3.2,1.6-4.7c1.6-2.5,3.4-4.9,5.5-7.1c1.3-1.4,2.3-2.9,2.9-4.7c0.6-2,0.5-4,0-6c-0.1-0.3-0.2-0.6-0.1-1
			c0.6,0.2,1.1,0.6,1.7,0.9c3.1,1.9,5.4,4.4,6.5,7.9c0.7,2,0.8,4,0.5,6.1C37.6,29,37.6,29,38,29c0.7-0.2,1.1-0.5,1.5-1.1
			c0.3-0.5,0.5-1,0.7-1.6c0.1-0.4,0.2-0.4,0.5-0.2c1.3,0.9,2.2,2.2,2.9,3.6c1.3,2.7,1.9,5.6,1.6,8.6c-0.4,4.3-2.5,7.5-6.1,9.8
			C38.3,48.6,37.5,48.9,36.7,48.8z"/>
	</g>
</g>
</svg>
