<?xml version="1.0" encoding="utf-8"?>
<!-- Generator: Adobe Illustrator 27.6.1, SVG Export Plug-In . SVG Version: 6.00 Build 0)  -->
<svg version="1.1" id="Layer_1" xmlns="http://www.w3.org/2000/svg" xmlns:xlink="http://www.w3.org/1999/xlink" x="0px" y="0px"
	 viewBox="0 0 253.6 48.4" style="enable-background:new 0 0 253.6 48.4;" xml:space="preserve">
<style type="text/css">
	.st0{fill:#55A7FF;}
	.st1{fill:#FFFFFF;}
</style>
<polygon class="st0" points="226.6,24.1 250.5,0.3 236.3,0.1 0,0.1 0,48 236.3,48 250.5,48 "/>
<g>
	<path class="st1" d="M42.5,17.1H52v13.6h-2.8V19.5h-4l0,2.1c0,1.2,0,2.3-0.1,3.3c-0.1,0.9-0.2,1.8-0.3,2.5
		c-0.1,0.7-0.3,1.3-0.5,1.8c-0.2,0.5-0.4,0.9-0.7,1.1c-0.3,0.3-0.6,0.5-0.9,0.6c-0.3,0.1-0.7,0.2-1.1,0.2c-0.3,0-0.6,0-0.9-0.1
		s-0.5-0.1-0.8-0.2l0-2.6c0.1,0,0.2,0.1,0.3,0.1c0.1,0,0.2,0,0.3,0.1c0.1,0,0.2,0,0.3,0s0.1,0,0.2,0c0.2,0,0.3,0,0.5-0.1
		c0.1,0,0.3-0.1,0.4-0.3c0.1-0.2,0.2-0.4,0.3-0.7c0.1-0.3,0.2-0.7,0.2-1.2c0.1-0.5,0.1-1.1,0.1-1.8s0-1.6,0-2.5V17.1z"/>
	<path class="st1" d="M63.5,20.4c0.8,0,1.6,0.1,2.2,0.4s1.1,0.7,1.5,1.1c0.4,0.5,0.7,1,0.9,1.7s0.3,1.3,0.3,2.1c0,0.4,0,0.9-0.1,1.3
		c-0.1,0.4-0.2,0.8-0.4,1.2c-0.2,0.4-0.4,0.8-0.6,1.1c-0.3,0.3-0.6,0.6-0.9,0.9c-0.4,0.3-0.8,0.5-1.2,0.6c-0.5,0.1-1,0.2-1.6,0.2
		c-0.6,0-1.2-0.1-1.7-0.2s-1-0.4-1.4-0.8s-0.8-0.8-1.1-1.4c-0.3-0.6-0.5-1.3-0.5-2.1H57v4.2h-2.6V20.6H57v4h1.7
		c0.1-0.7,0.3-1.4,0.6-1.9s0.6-1,1-1.3c0.4-0.3,0.9-0.6,1.4-0.8C62.3,20.4,62.9,20.4,63.5,20.4z M61.5,26.9c0.1,0.4,0.2,0.7,0.4,1
		c0.2,0.3,0.4,0.5,0.7,0.7c0.3,0.2,0.6,0.2,1,0.2s0.7-0.1,1-0.2s0.5-0.4,0.7-0.7c0.2-0.3,0.3-0.6,0.4-1c0.1-0.4,0.1-0.8,0.1-1.2
		c0-0.4,0-0.8-0.1-1.2c-0.1-0.4-0.2-0.7-0.4-1s-0.4-0.5-0.7-0.7c-0.3-0.2-0.6-0.2-1-0.2s-0.7,0.1-1,0.2c-0.3,0.2-0.5,0.4-0.7,0.7
		s-0.3,0.6-0.4,1c-0.1,0.4-0.1,0.8-0.1,1.2C61.4,26.1,61.4,26.6,61.5,26.9z"/>
	<path class="st1" d="M76.4,17.2c0.1-0.1,0.2-0.2,0.3-0.2H79c0,0.5-0.1,0.9-0.3,1.3c-0.2,0.3-0.4,0.6-0.7,0.8s-0.7,0.3-1.1,0.4
		c-0.4,0.1-0.8,0.1-1.2,0.2c-0.3,0-0.6,0.1-0.9,0.1c-0.3,0.1-0.6,0.1-0.9,0.2c-0.3,0.1-0.6,0.3-0.8,0.4s-0.5,0.4-0.7,0.7
		S72,21.7,71.9,22c-0.1,0.4-0.2,0.8-0.2,1.3c0.1-0.3,0.3-0.6,0.5-0.9c0.2-0.3,0.5-0.5,0.8-0.8s0.7-0.4,1.1-0.5
		c0.4-0.1,0.9-0.2,1.4-0.2c0.7,0,1.3,0.1,1.9,0.3c0.6,0.2,1,0.6,1.4,1c0.4,0.4,0.7,0.9,0.9,1.5s0.3,1.3,0.3,2c0,0.8-0.1,1.5-0.4,2.2
		c-0.2,0.7-0.6,1.2-1,1.7c-0.4,0.5-1,0.8-1.6,1.1c-0.6,0.3-1.4,0.4-2.1,0.4c-1.2,0-2.1-0.2-2.9-0.7c-0.8-0.5-1.3-1.3-1.8-2.3
		c-0.1-0.4-0.2-0.8-0.3-1.2c-0.1-0.4-0.1-0.8-0.2-1.1c0-0.4-0.1-0.7-0.1-0.9c0-0.3,0-0.4,0-0.5c0-1,0.1-1.8,0.3-2.6
		c0.2-0.8,0.6-1.5,1.1-2.1c0.5-0.6,1.1-1.1,1.9-1.4c0.8-0.4,1.7-0.6,2.8-0.7C76,17.4,76.2,17.3,76.4,17.2z M74.9,22.9
		c-0.5,0-0.8,0.1-1.2,0.2c-0.3,0.2-0.6,0.4-0.8,0.6c-0.2,0.3-0.4,0.6-0.4,0.9s-0.1,0.7-0.1,1.1s0,0.8,0.1,1.1c0.1,0.4,0.2,0.7,0.4,1
		c0.2,0.3,0.4,0.5,0.8,0.7c0.3,0.2,0.7,0.3,1.1,0.3c0.5,0,0.9-0.1,1.2-0.3c0.3-0.2,0.6-0.4,0.7-0.7c0.2-0.3,0.3-0.6,0.4-1
		c0.1-0.4,0.1-0.8,0.1-1.2c0-0.4,0-0.8-0.1-1.1c-0.1-0.3-0.2-0.6-0.4-0.9c-0.2-0.3-0.4-0.5-0.7-0.6C75.6,22.9,75.3,22.9,74.9,22.9z"
		/>
	<path class="st1" d="M84.2,30.7c-0.6-0.3-1.2-0.6-1.6-1.1c-0.4-0.5-0.8-1-1-1.7c-0.2-0.7-0.4-1.4-0.4-2.1s0.1-1.5,0.4-2.1
		c0.2-0.7,0.6-1.2,1-1.7c0.4-0.5,1-0.8,1.6-1.1c0.6-0.3,1.4-0.4,2.1-0.4c0.8,0,1.5,0.1,2.2,0.4c0.6,0.3,1.2,0.6,1.6,1.1
		c0.4,0.5,0.8,1,1,1.7c0.2,0.7,0.4,1.4,0.4,2.1s-0.1,1.5-0.4,2.1c-0.2,0.7-0.6,1.2-1,1.7s-1,0.8-1.6,1.1c-0.6,0.3-1.4,0.4-2.2,0.4
		C85.5,31.1,84.8,30.9,84.2,30.7z M84,26.8c0.1,0.4,0.2,0.7,0.4,1c0.2,0.3,0.4,0.5,0.8,0.7c0.3,0.2,0.7,0.3,1.1,0.3
		c0.5,0,0.9-0.1,1.2-0.3c0.3-0.2,0.6-0.4,0.7-0.7s0.3-0.6,0.4-1c0.1-0.4,0.1-0.8,0.1-1.2c0-0.4,0-0.8-0.1-1.2s-0.2-0.7-0.4-1
		s-0.4-0.5-0.7-0.7c-0.3-0.2-0.7-0.3-1.2-0.3c-0.5,0-0.8,0.1-1.1,0.3c-0.3,0.2-0.6,0.4-0.8,0.7c-0.2,0.3-0.3,0.6-0.4,1
		s-0.1,0.8-0.1,1.1S84,26.5,84,26.8z"/>
	<path class="st1" d="M99.1,30.7h-5.7V20.6h5.2c0.5,0,0.9,0,1.3,0.1c0.4,0.1,0.8,0.2,1.1,0.4c0.3,0.2,0.6,0.5,0.8,0.8
		c0.2,0.3,0.3,0.8,0.3,1.3c0,0.3,0,0.6-0.1,0.8c-0.1,0.2-0.2,0.4-0.3,0.6c-0.1,0.2-0.2,0.3-0.4,0.4c-0.1,0.1-0.3,0.2-0.4,0.3
		c0.5,0.2,0.9,0.5,1.2,0.9c0.3,0.4,0.4,0.9,0.4,1.4c0,0.5-0.1,0.9-0.2,1.3c-0.2,0.4-0.4,0.7-0.7,1c-0.3,0.3-0.7,0.5-1.1,0.6
		C100.1,30.7,99.7,30.7,99.1,30.7z M99.3,24.3c0.1-0.1,0.2-0.2,0.2-0.3c0-0.1,0.1-0.3,0.1-0.5c0-0.1,0-0.3-0.1-0.4
		c0-0.1-0.1-0.2-0.2-0.3c-0.1-0.1-0.3-0.2-0.4-0.2c-0.2-0.1-0.4-0.1-0.7-0.1h-2.1v2.1h2c0.3,0,0.5,0,0.7-0.1
		C99,24.5,99.2,24.4,99.3,24.3z M98.9,26.4c-0.2,0-0.5-0.1-0.8-0.1h-2v2.5h2c0.4,0,0.7,0,0.9-0.1c0.2-0.1,0.4-0.2,0.5-0.3
		c0.1-0.1,0.2-0.3,0.2-0.4s0.1-0.3,0.1-0.4c0-0.2,0-0.5-0.1-0.6c-0.1-0.2-0.2-0.3-0.3-0.4C99.3,26.5,99.1,26.5,98.9,26.4z"/>
	<path class="st1" d="M110.8,30.7c-0.2,0-0.4,0-0.5,0h-5.6V20.6h2.6v3.5h2.7c0.6,0,1.2,0.1,1.7,0.2c0.5,0.1,0.9,0.3,1.2,0.6
		s0.6,0.6,0.8,1c0.2,0.4,0.3,0.9,0.3,1.5c0,0.5-0.1,1-0.2,1.3c-0.1,0.4-0.3,0.7-0.6,0.9c-0.2,0.2-0.5,0.4-0.8,0.6
		c-0.3,0.1-0.6,0.2-0.8,0.3C111.3,30.7,111,30.7,110.8,30.7z M110.6,26.4c-0.2-0.1-0.4-0.2-0.6-0.2c-0.2,0-0.5-0.1-0.7-0.1h-2v2.6
		h2.2c0.2,0,0.4,0,0.6-0.1c0.2,0,0.4-0.1,0.5-0.2c0.2-0.1,0.3-0.2,0.4-0.4s0.1-0.4,0.1-0.7c0-0.3-0.1-0.5-0.2-0.7
		C111,26.6,110.8,26.5,110.6,26.4z"/>
	<path class="st1" d="M127.4,30.7v-6.1h0l-3.6,6.1h-2.9V20.6h2.6v6.2h0l3.7-6.2h2.8v10.1H127.4z"/>
	<path class="st1" d="M138.1,17.1h9.2v2.3h-6.3v11.3h-2.8V17.1z"/>
	<path class="st1" d="M151.2,30.7c-0.6-0.3-1.2-0.6-1.6-1.1c-0.4-0.5-0.8-1-1-1.7c-0.2-0.7-0.4-1.4-0.4-2.1s0.1-1.5,0.4-2.1
		c0.2-0.7,0.6-1.2,1-1.7c0.4-0.5,1-0.8,1.6-1.1c0.6-0.3,1.4-0.4,2.1-0.4c0.8,0,1.5,0.1,2.2,0.4c0.6,0.3,1.2,0.6,1.6,1.1
		c0.4,0.5,0.8,1,1,1.7c0.2,0.7,0.4,1.4,0.4,2.1s-0.1,1.5-0.4,2.1c-0.2,0.7-0.6,1.2-1,1.7s-1,0.8-1.6,1.1c-0.6,0.3-1.4,0.4-2.2,0.4
		C152.5,31.1,151.8,30.9,151.2,30.7z M151,26.8c0.1,0.4,0.2,0.7,0.4,1c0.2,0.3,0.4,0.5,0.8,0.7c0.3,0.2,0.7,0.3,1.1,0.3
		c0.5,0,0.9-0.1,1.2-0.3c0.3-0.2,0.6-0.4,0.7-0.7s0.3-0.6,0.4-1c0.1-0.4,0.1-0.8,0.1-1.2c0-0.4,0-0.8-0.1-1.2s-0.2-0.7-0.4-1
		s-0.4-0.5-0.7-0.7c-0.3-0.2-0.7-0.3-1.2-0.3c-0.5,0-0.8,0.1-1.1,0.3c-0.3,0.2-0.6,0.4-0.8,0.7c-0.2,0.3-0.3,0.6-0.4,1
		s-0.1,0.8-0.1,1.1S150.9,26.5,151,26.8z"/>
	<path class="st1" d="M164.3,22.8l-0.1,1.9c0,1.1-0.1,2-0.2,2.8c-0.1,0.8-0.3,1.5-0.5,2c-0.2,0.5-0.6,0.9-1,1.2s-0.9,0.4-1.6,0.4
		c-0.3,0-0.6,0-0.8-0.1c-0.2,0-0.4-0.1-0.5-0.1v-2.2c0.1,0,0.2,0.1,0.3,0.1c0.1,0,0.3,0,0.5,0c0.2,0,0.4-0.1,0.5-0.2
		c0.2-0.1,0.3-0.3,0.4-0.7c0.1-0.3,0.2-0.8,0.3-1.3c0.1-0.6,0.1-1.3,0.1-2.2l0.1-3.8h8.1v10.1h-2.6v-8H164.3z"/>
	<path class="st1" d="M176.9,28.1l2.1-7.4h2.8l-3.5,9.9c-0.2,0.6-0.4,1.1-0.5,1.5c-0.2,0.4-0.3,0.8-0.5,1.1
		c-0.2,0.3-0.3,0.6-0.5,0.8c-0.2,0.2-0.4,0.4-0.6,0.5c-0.2,0.1-0.5,0.2-0.8,0.2c-0.3,0-0.7,0.1-1.1,0.1c-0.2,0-0.3,0-0.5,0
		c-0.2,0-0.3,0-0.5,0v-2.1c0.1,0,0.2,0,0.4,0c0.2,0,0.3,0,0.4,0c0.3,0,0.5-0.1,0.7-0.2s0.3-0.2,0.5-0.4c0.1-0.1,0.2-0.3,0.2-0.4
		c0-0.2,0.1-0.3,0.1-0.4l-3.7-10.6h2.9L176.9,28.1L176.9,28.1z"/>
	<path class="st1" d="M189.5,17.2c0.1-0.1,0.2-0.2,0.3-0.2h2.4c0,0.5-0.1,0.9-0.3,1.3c-0.2,0.3-0.4,0.6-0.7,0.8s-0.7,0.3-1.1,0.4
		c-0.4,0.1-0.8,0.1-1.2,0.2c-0.3,0-0.6,0.1-0.9,0.1c-0.3,0.1-0.6,0.1-0.9,0.2c-0.3,0.1-0.6,0.3-0.8,0.4s-0.5,0.4-0.7,0.7
		s-0.4,0.6-0.5,0.9c-0.1,0.4-0.2,0.8-0.2,1.3c0.1-0.3,0.3-0.6,0.5-0.9c0.2-0.3,0.5-0.5,0.8-0.8s0.7-0.4,1.1-0.5
		c0.4-0.1,0.9-0.2,1.4-0.2c0.7,0,1.3,0.1,1.9,0.3c0.6,0.2,1,0.6,1.4,1c0.4,0.4,0.7,0.9,0.9,1.5s0.3,1.3,0.3,2c0,0.8-0.1,1.5-0.4,2.2
		c-0.2,0.7-0.6,1.2-1,1.7c-0.4,0.5-1,0.8-1.6,1.1c-0.6,0.3-1.4,0.4-2.1,0.4c-1.2,0-2.1-0.2-2.9-0.7c-0.8-0.5-1.3-1.3-1.8-2.3
		c-0.1-0.4-0.2-0.8-0.3-1.2c-0.1-0.4-0.1-0.8-0.2-1.1c0-0.4-0.1-0.7-0.1-0.9c0-0.3,0-0.4,0-0.5c0-1,0.1-1.8,0.3-2.6
		c0.2-0.8,0.6-1.5,1.1-2.1c0.5-0.6,1.1-1.1,1.9-1.4c0.8-0.4,1.7-0.6,2.8-0.7C189.1,17.4,189.3,17.3,189.5,17.2z M188,22.9
		c-0.5,0-0.8,0.1-1.2,0.2c-0.3,0.2-0.6,0.4-0.8,0.6c-0.2,0.3-0.4,0.6-0.4,0.9s-0.1,0.7-0.1,1.1s0,0.8,0.1,1.1c0.1,0.4,0.2,0.7,0.4,1
		c0.2,0.3,0.4,0.5,0.8,0.7c0.3,0.2,0.7,0.3,1.1,0.3c0.5,0,0.9-0.1,1.2-0.3c0.3-0.2,0.6-0.4,0.7-0.7c0.2-0.3,0.3-0.6,0.4-1
		c0.1-0.4,0.1-0.8,0.1-1.2c0-0.4,0-0.8-0.1-1.1c-0.1-0.3-0.2-0.6-0.4-0.9c-0.2-0.3-0.4-0.5-0.7-0.6C188.7,22.9,188.4,22.9,188,22.9z
		"/>
	<path class="st1" d="M201.4,30.7v-6.1h0l-3.6,6.1h-2.9V20.6h2.6v6.2h0l3.7-6.2h2.8v10.1H201.4z"/>
</g>
</svg>
