<?xml version="1.0" encoding="utf-8"?>
<!-- Generator: Adobe Illustrator 27.6.1, SVG Export Plug-In . SVG Version: 6.00 Build 0)  -->
<svg version="1.1" id="Layer_2_00000044140594136988984380000004782367897999027588_"
	 xmlns="http://www.w3.org/2000/svg" xmlns:xlink="http://www.w3.org/1999/xlink" x="0px" y="0px" viewBox="0 0 64 64"
	 style="enable-background:new 0 0 64 64;" xml:space="preserve">
<style type="text/css">
	.st0{fill:#FFFFFF;}
</style>
<path class="st0" d="M14.6,32L14.6,32c0-1.4,1.1-2.5,2.5-2.5l29.8,0c1.4,0,2.5,1.1,2.5,2.5l0,0c0,1.4-1.1,2.5-2.5,2.5l-29.8,0
	C15.7,34.5,14.6,33.4,14.6,32z"/>
<path class="st0" d="M29.5,46.9l0-29.8c0-1.4,1.1-2.5,2.5-2.5l0,0c1.4,0,2.5,1.1,2.5,2.5l0,29.8c0,1.4-1.1,2.5-2.5,2.5l0,0
	C30.6,49.4,29.5,48.3,29.5,46.9z"/>
</svg>
