<?xml version="1.0" encoding="utf-8"?>
<!-- Generator: Adobe Illustrator 27.6.1, SVG Export Plug-In . SVG Version: 6.00 Build 0)  -->
<svg version="1.1" id="Layer_2_00000153699121276726185810000005906336441643357595_"
	 xmlns="http://www.w3.org/2000/svg" xmlns:xlink="http://www.w3.org/1999/xlink" x="0px" y="0px" viewBox="0 0 64 64"
	 style="enable-background:new 0 0 64 64;" xml:space="preserve">
<style type="text/css">
	.st0{fill:#FFFFFF;}
</style>
<g>
	<path class="st0" d="M25,30.3L25,30.3c1-1,2.6-1,3.5,0L39,40.8c1,1,1,2.6,0,3.5l0,0c-1,1-2.6,1-3.5,0L25,33.8
		C24,32.8,24,31.2,25,30.3z"/>
	<path class="st0" d="M25,30.2l10.5-10.5c1-1,2.6-1,3.5,0l0,0c1,1,1,2.6,0,3.5L28.5,33.7c-1,1-2.6,1-3.5,0l0,0
		C24,32.8,24,31.2,25,30.2z"/>
</g>
</svg>
