<?xml version="1.0" encoding="UTF-8"?>
<svg id="Layer_1" data-name="Layer 1" xmlns="http://www.w3.org/2000/svg" viewBox="0 0 512 512">
  <defs>
    <style>
      .cls-1 {
        fill: #ee4947;
      }

      .cls-2 {
        fill: #fff;
      }
    </style>
  </defs>
  <rect class="cls-1" x="-12.83" y="-17.1" width="536.49" height="542.88"/>
  <g id="ciy92f">
    <g>
      <path class="cls-2" d="m251.68,125.26c.42,12.14-2,24.93-2.77,37.81-.7,11.87-2.64,23.56-3.89,35.33-1.07,10.12-3.11,20.21-4.77,30.3-2.17,13.22-4.5,26.43-6.48,39.69-1.73,11.55-3.61,23.11-5.61,34.64-1.15,6.61-.7,13.32-.79,19.98-.06,4.73,2.35,6.09,7.06,7.09,12.27,2.59,24.5.79,36.75.46,6.96-.19,13.35,1.41,18.98,5.76,4.99,3.86,6.7,9.54,7.93,15.13,1.87,8.48,2.43,17.19.07,25.73-1.13,4.1-2.9,7.92-7.74,9.24-5.83,1.59-11.27.44-16.66-1.69-5.27-2.08-10.51-4.24-15.77-6.34-3.43-1.37-4.77,1.37-6.24,3.41-3.14,4.36-5.36,9.3-8.56,13.68-4.88,6.67-13.03,10.14-20.67,7.19-7.72-2.99-15.71-4.95-23.88-5.77-6.1-.61-12.19-.09-16.1,5.98-3.62,5.62-.85,10.42,3.57,12.56,8.17,3.94,16.96,4.13,25.8,3.33,12.2-1.11,24.14-3.81,36.19-5.83,9.49-1.59,19.22-2.93,28.95-.34,9.89,2.63,17.04,11.39,13.27,21.75-4.35,11.93-13.34,18.24-24.71,22.58-9.09,3.47-18.28,4.88-27.81,3.76-15.63-1.83-25.43-11.73-32.92-24.59-.67-1.15-.88-2.19.37-3.15,1.38-1.06,2.65-1.05,3.95.1,3.87,3.43,7.9,6.7,11.61,10.3,9.09,8.85,19.49,10.76,31.8,8.13,7.97-1.7,15.09-4.67,21.27-9.47,3.81-2.95,6.7-7.26,7.49-12.55.6-4.07-5.52-7.65-9.77-8.01-10.59-.89-20.94.48-31.35,2.51-12.54,2.45-25.21,4.62-38.09,3.91-7.67-.42-15.15-1.45-21.83-6.13-5.46-3.82-8.78-8.36-8.07-15.08.67-6.39,3.73-11.55,9.37-14.88,6.41-3.79,13.41-3.51,20.51-2.92,7.5.63,14.51,3.07,21.62,5.24,6.07,1.85,9.32.58,12.75-4.88,2.85-4.53,5.52-9.17,8.41-13.67,4.32-6.71,10.24-8.29,17.55-5.28,5.97,2.46,11.51,5.85,17.71,7.82,7.08,2.25,9.41,1.02,10.97-6.21,1.24-5.75.76-11.46-.78-17.03-.93-3.37-.93-6.94-3.37-10.04-3.13-3.97-6.8-5.77-11.76-6.08-10.88-.68-21.55,2.18-32.39,1.63-6.48-.33-13-.44-19.02-3.59-4.87-2.55-7.17-6.78-7.36-11.82-.43-11.32.42-22.55,2.01-33.85,1.9-13.54,4.29-26.97,6.48-40.45,1.89-11.65,4.05-23.29,5.63-34.97,2.19-16.18,4.53-32.36,6.21-48.63,1.89-18.38,3.67-36.72,2.7-55.13-.93-17.69-7.16-33.42-23.33-42.71-11.81-6.79-24.66-9-38.39-5-16.63,4.86-29.7,14.55-41.49,26.88-10.32,10.79-18.69,22.74-25.03,36.13-2.6,5.49-4.43,11.33-5.05,17.44-.1.96-.57,2.31.71,2.81.99.39,1.62-.71,2.33-1.26,9-7.04,19.32-10.99,30.31-13.85,9.82-2.56,19.72-3.04,29.73-2.88,8.88.14,17.52,1.78,24.96,6.78,8.77,5.89,15.5,13.6,17.93,24.29,1.97,8.65-3.5,18.74-11.92,22.63-16.54,7.63-34.05,7.91-51.69,6.8-8.07-.51-16.24-.95-23.79-4.44-10.07-4.66-17.5-11.67-19.99-22.89-.81-3.63-2.85-6.73-3.5-10.52-1.5-8.68-.04-16.79,2.53-25.04,2.85-9.15,7.17-17.58,12.48-25.36,6.88-10.09,14.68-19.55,23.84-27.8,7.56-6.81,15.81-12.66,25.14-16.61,12.36-5.24,25.05-8.23,38.78-5.08,14.07,3.23,26.02,9.46,34.67,21.18,8.61,11.67,11.82,25.22,12.93,39.37.3,3.85.05,7.75.05,12.47Zm-97.22,57.85c13.87.73,26.73-.97,38.86-6.44,5.19-2.34,9.7-5.7,8.02-14.11-.89-4.45-3.04-7.88-5.95-10.84-5.11-5.22-11.01-9.33-18.54-10.35-.71-.1-1.61-.98-2.12.01-.43.83-.25,1.82.61,2.52,4.17,3.41,5.94,8.15,6.99,13.18,1.36,6.52-.82,13.77-6.6,17.76-7.31,5.05-14.64,6.29-23.23,2.68-12.24-5.14-16.88-19.61-11.74-30.95.43-.94,1.47-1.93.69-2.93-.83-1.07-2.21-.59-3.38-.4-7.35,1.23-14.36,3.47-20.94,7.01-3.58,1.93-7.03,7.85-5.9,11.31,2.86,8.83,8.77,15.13,17.48,18.3,8.48,3.09,17.38,3.97,25.74,3.23Zm7.13-11.97c7.69.57,14.53-6.41,11.17-14.8-3.22-8.05-9.03-11.5-16.68-13.22-1.95-.44-3.64.48-5.04,1.86-4.34,4.27-5.52,11.89-2.87,18.5,1.55,3.85,8.23,7.67,13.42,7.67Z"/>
      <path class="cls-2" d="m338.13,180.25c-15.12.4-30.13-.7-44.97-3.61-3.22-.63-6.6-1.57-9.06-3.82-4.65-4.27-4.23-10.21.65-16.22,5.28-6.51,12.26-10.91,19.37-14.92,5.71-3.22,11.77-6.07,18.01-8.04,9.97-3.15,20.12-5.99,30.65-6.55,11.07-.6,22.15-.39,32.79,3.23,8.67,2.96,16.07,7.76,21.47,15.47,3.73,5.32,5.83,10.54,2.93,17-1.05,2.34-2.84,3.79-4.64,5.1-7.66,5.61-16.57,7.44-25.8,9.14-12.16,2.25-24.32,3.09-36.6,3.23-1.6.02-3.2,0-4.81,0Zm18.25-9.52c5.69.93,10.2-.09,14.71-1.12,8.39-1.91,17-2.97,24.72-7.24,4.76-2.63,5.42-4.3,2.2-8.46-7.11-9.2-17.14-12.49-28.22-13.34-2.56-.2-2.45,1.91-2.42,3.68.18,10.08-2.19,19.17-10.99,26.47Zm.54-23.65c.11-6.7-.63-7.83-6.52-7.05-7.08.93-14.23,1.52-21.11,3.93-3.35,1.17-3.86,2.84-3.35,5.88.92,5.53,3.97,9.76,8.92,11.65,4.3,1.64,8.77,4.88,13.96,1.63,5.84-3.67,8.21-8.94,8.11-16.04Zm-25.98,25.4c-3.37-3.62-7.14-5.02-9.37-8.09-2.74-3.77-4.55-7.95-5.09-12.66-.18-1.59-.24-3.96-2.99-2.76-8.34,3.65-16.28,8.04-23.49,13.64-2.32,1.8-1.99,4.47.45,5.25,2.13.68,4.31,1.21,6.49,1.72,10.82,2.55,21.92,1.59,34,2.9Z"/>
      <path class="cls-2" d="m401.79,203.92c.14,5.56-1.3,10.37-4.66,14.37-3.25,3.88-11.79,4.4-17.01,1.6-2.95-1.59-5.62-3.54-7.81-5.98-1.74-1.93-2.75-1.47-3.18.57-.53,2.53-2.37,4.13-3.63,6.13-3.78,5.99-12.38,5.1-17.44-.97-1.46-1.75-2.37-3.77-3.38-5.77-1.65-3.26-2.65-3.37-4.55-.17-2.65,4.47-5.77,8.48-9.87,11.65-7.09,5.47-13.29,3.7-17.59-3.77-1.77-3.07-2.43-6.38-3.16-9.73-.41-1.91-.77-2.86-3.05-1.06-4.5,3.56-8.37,7.89-13.75,10.44-6.97,3.31-13.55-.92-14.38-8.58-.84-7.75,1.51-14.99,5.61-21.58,1.23-1.97,3.29-3.14,5.47-1.89,2.21,1.27,1.44,3.22.47,5.23-2.56,5.28-4.38,10.75-3.75,16.83.39,3.73,1.95,4.76,5.16,2.72,3.86-2.44,7.23-5.49,10.45-8.72,1.59-1.6,3.4-2.99,5-4.58,1.48-1.46,3.1-3.06,5.2-2.07,2.2,1.04,3.92,2.99,3.88,5.65-.08,4.64,1.28,8.82,3.09,13.03,2,4.63,4.52,5.5,8.44,2.34,4.17-3.37,6.71-7.98,9.35-12.49,1.53-2.62,2.78-5.4,4.35-7.99.91-1.5,2.13-2.61,4.31-1.92,2.02.64,2.36,1.85,2.74,3.77,1.01,5.14,1.99,10.38,5.81,14.46,4.19,4.47,7.43,3.83,9.19-2.23.99-3.4,2.56-6.63,2.79-10.32.14-2.32,1.41-4.92,4.2-5.15,2.97-.24,3.66,2.21,4.48,4.65,1.76,5.25,4.94,9.51,10.11,11.98,5.92,2.82,9.4-.36,10.53-7.53.49-3.07-.41-6.36-.62-9.55-.11-1.73-.28-4.06,1.85-4.21,2.05-.14,4.21,1.04,4.44,3.67.22,2.52,1.31,4.93.86,7.19Z"/>
    </g>
  </g>
</svg>