<?xml version="1.0" encoding="utf-8"?>
<!-- Generator: Adobe Illustrator 27.6.1, SVG Export Plug-In . SVG Version: 6.00 Build 0)  -->
<svg version="1.1" id="Gift--Streamline-Heroicons-Outline"
	 xmlns="http://www.w3.org/2000/svg" xmlns:xlink="http://www.w3.org/1999/xlink" x="0px" y="0px" viewBox="0 0 24 24"
	 style="enable-background:new 0 0 24 24;" xml:space="preserve">
<style type="text/css">
	.st0{fill:none;stroke:#FFFFFF;stroke-width:0.5;stroke-linecap:round;stroke-linejoin:round;}
</style>
<path class="st0" d="M17.4,11.5v5c0,0.5-0.4,0.9-0.9,0.9H7.9C7.4,17.4,7,17,7,16.5v-5 M12,7.7c0-0.9-0.7-1.6-1.6-1.6
	S8.8,6.8,8.8,7.7s0.7,1.6,1.6,1.6H12 M12,7.7v1.6 M12,7.7c0-0.9,0.7-1.6,1.6-1.6s1.6,0.7,1.6,1.6s-0.7,1.6-1.6,1.6H12 M12,9.3v8.2
	 M6.8,11.5h10.9c0.4,0,0.7-0.3,0.7-0.7V10c0-0.4-0.3-0.7-0.7-0.7H6.8c-0.4,0-0.7,0.3-0.7,0.7v0.9C6.1,11.2,6.4,11.5,6.8,11.5z"/>
</svg>
