<?xml version="1.0" encoding="utf-8"?>
<!-- Generator: Adobe Illustrator 27.6.1, SVG Export Plug-In . SVG Version: 6.00 Build 0)  -->
<svg version="1.1" id="Layer_2_00000036213812410913763680000005979727246787375785_"
	 xmlns="http://www.w3.org/2000/svg" xmlns:xlink="http://www.w3.org/1999/xlink" x="0px" y="0px" viewBox="0 0 64 64"
	 style="enable-background:new 0 0 64 64;" xml:space="preserve">
<style type="text/css">
	.st0{fill:#FFFFFF;}
</style>
<g id="GSzexS_00000073688256545970931470000014532102774403728291_">
	<g>
		<path class="st0" d="M36.8,49.3c-1.7,0-3.9-0.9-6-2c-3.7-1.9-6.8-4.6-9.8-7.4c-1.5-1.5-3.1-2.8-4.6-4.2C15.6,35,15.4,34,16,33.1
			c0.6-1,2-1.3,2.9-0.6c1.5,1.2,3,2.4,4.5,3.5c0.1,0.1,0.1,0.1,0.2,0.2c0.2,0.2,0.5,0.3,0.7,0.1c0.3-0.3,0-0.5-0.2-0.7
			c-1.2-1.1-2.4-2.2-3.6-3.2c-1.6-1.5-3.3-3-4.9-4.4c-1-0.9-1-2.1-0.2-3c0.8-0.9,2.1-0.9,3.1,0c2.5,2.2,4.9,4.4,7.4,6.6
			c0.1,0,0.1,0.1,0.2,0.1c0.1,0.1,0.3,0.2,0.5,0.1c0.2-0.2,0-0.3-0.1-0.5c-0.8-0.8-1.5-1.5-2.3-2.3c-2.1-2.2-4.3-4.3-6.4-6.5
			c-0.9-0.9-1-2.2-0.1-3c0.9-0.9,2.2-0.8,3.1,0.1c2.7,2.7,5.5,5.5,8.2,8.2c0.1,0.1,0.2,0.2,0.3,0.3c0.2,0.2,0.4,0.3,0.7,0.1
			c0.2-0.2,0.1-0.4,0-0.7c-0.8-1-1.6-2-2.3-3.1c-1.2-1.6-2.5-3.2-3.7-4.8c-1.1-1.4-0.6-2.9,1-3.5c0.8-0.3,1.7,0,2.2,0.8
			c2.1,2.7,4.2,5.4,6.3,8.2c1.1,1.5,2.4,2.8,4,3.7c0.4,0.3,0.9,0.5,1.4,0.6c1.2,0.3,2.2-0.1,2.7-1.3c0.3-0.6,0.4-1.3,0.6-2
			c0.7-2.1,2.2-3.5,4.2-4.3c1.1-0.4,2.2,0.1,2.6,1.1c0.2,0.6-0.1,1.2-0.4,1.7c-0.9,1.5-1.5,3.2-1.7,4.9c-0.2,1.4-0.1,2.8,0.2,4.2
			c0.6,3.2,0.7,6.4-0.8,9.4c-0.8,1.7-2,3.2-3.4,4.4C41,48.8,39.3,49.4,36.8,49.3z"/>
		<path class="st0" d="M9.1,36.7c-0.1-0.2-0.1-0.5,0.3-0.6c0.4-0.1,0.4,0.3,0.4,0.5c0.3,1.9,1.1,3.5,2.5,4.7c1.2,1,2.5,1.6,4,1.8
			c0.3,0,0.5,0.1,0.5,0.4c0,0.3-0.3,0.3-0.5,0.3C12.7,43.5,9.5,40.3,9.1,36.7z"/>
		<path class="st0" d="M32,13.8c1.8,0.2,3.4,1,4.7,2.3c1.4,1.3,2.2,3,2.4,4.9c0,0.2,0.1,0.5-0.2,0.5c-0.3,0.1-0.4-0.1-0.4-0.4
			c-0.4-2.6-1.7-4.6-4.1-5.8c-0.7-0.4-1.5-0.6-2.3-0.7c-0.1,0-0.2,0-0.3,0c-0.2,0-0.5-0.1-0.4-0.4C31.5,13.8,31.8,13.7,32,13.8z"/>
		<path class="st0" d="M31.7,16.7c1.7,0.1,3.6,1.6,4.2,3.4c0.1,0.4,0.2,0.8,0.3,1.2c0.1,0.3-0.1,0.5-0.3,0.5c-0.3,0-0.3-0.2-0.4-0.4
			c-0.4-2.2-1.7-3.5-3.9-3.9c-0.2,0-0.5-0.1-0.4-0.4C31.3,16.7,31.5,16.7,31.7,16.7z"/>
		<path class="st0" d="M12.1,36.4c0-0.3-0.1-0.5,0.3-0.6c0.3,0,0.4,0.2,0.4,0.4c0.3,1.8,1.3,3,3,3.7c0.3,0.1,0.5,0.2,0.8,0.2
			c0.3,0,0.6,0.1,0.5,0.5c-0.1,0.4-0.4,0.3-0.6,0.3c-2.2-0.5-3.6-1.7-4.3-3.8C12.2,36.8,12.1,36.6,12.1,36.4z"/>
	</g>
</g>
</svg>
