<?xml version="1.0" encoding="UTF-8"?>
<svg id="Layer_1" data-name="Layer 1" xmlns="http://www.w3.org/2000/svg" viewBox="0 0 640 640">
  <defs>
    <style>
      .cls-1 {
        fill: #fff;
      }
    </style>
  </defs>
  <path class="cls-1" d="m252.66,452.32c31.49,55.3,119.42,41.46,121.36-32.26,1.54-58.37-55.3-64.52-103.69-89.87-48.39-25.35-62.98-76.04-62.98-76.04,0,0-51.46,23.81-75.27,92.17-23.81,68.36-9.19,133.29,53.77,137.49,46.09,3.07,66.82-31.49,66.82-31.49Z"/>
  <path class="cls-1" d="m386.38,188.08c-31.49-55.3-119.42-41.46-121.36,32.26-1.54,58.37,55.3,64.52,103.69,89.87,48.39,25.35,62.98,76.04,62.98,76.04,0,0,51.46-23.81,75.27-92.17,23.81-68.36,9.19-133.29-53.77-137.49-46.09-3.07-66.82,31.49-66.82,31.49Z"/>
</svg>