<?xml version="1.0" encoding="UTF-8"?>
<svg id="Layer_1" data-name="Layer 1" xmlns="http://www.w3.org/2000/svg" viewBox="0 0 662 1000">
  <defs>
    <style>
      .cls-1 {
        fill: #f7f2ed;
      }

      .cls-2 {
        fill: #050404;
      }

      .cls-3 {
        fill: #ee4947;
      }
    </style>
  </defs>
  <rect class="cls-1" x="-59.91" y="-28.29" width="797.18" height="1058.84"/>
  <g id="DBG8DT">
    <g>
      <path class="cls-2" d="m383.07,738.39c1.04,11.15,2.08,22.29,3.12,33.44.3.45.61.9.91,1.34.09,3.26.18,6.53.28,9.79.1,8.57,3.37,16.9,1.17,25.75-.93,3.73.54,8.06.92,12.12-.72,2.23-1.44,4.46-2.15,6.7-.05.71-.11,1.42-.16,2.13-2.95,1.91-5.9,3.82-8.85,5.74-5.58,1.51-11.16,3.01-16.74,4.52-3.28.55-6.55,1.39-9.86,1.6-6.07.4-12.26-.22-18.21.76-9.57,1.58-9.84,1.8-13.06-7.17,1.06-.8,2.1-1.63,3.19-2.4,1.44-1.01,2.92-1.98,4.39-2.96,5.96-.68,11.92-1.36,17.88-2.03,1.88-.12,3.76-.25,5.64-.37,7.14-.94,14.28-1.86,21.41-2.84,5.25-.72,5.7-3.92,4.04-8.12,0-5.57,0-11.14,0-16.71,0-2.6,0-5.2,0-7.8-.78-9.78-1.37-19.59-2.44-29.34-.48-4.38-1.95-8.65-2.97-12.98-1.12-8.23-2.01-16.5-3.43-24.68-2-11.56-4.41-23.04-6.6-34.57-.91-4.77-1.71-9.56-2.56-14.34.12-1.1.24-2.21.35-3.31.8-1.08,2.29-2.16,2.29-3.25.09-14.93.09-29.85-.13-44.78-.17-11.62-.82-23.23-.98-34.84-.06-4.39,1.01-8.8.94-13.19-.14-9.95-.67-19.9-1.04-29.84.02-8.55.05-17.1.07-25.64,0-.73-.01-1.47-.02-2.2.02-4.1.04-8.2.06-12.3.34-.73.69-1.46,1.03-2.19.99.68,2.85,1.34,2.86,2.03.21,12.74,1.31,25.6-.1,38.18-1.18,10.58.91,20.31,3.02,30.25.48,2.25,2.03,4.28,3.09,6.41.01,6.81-.09,13.63.07,20.44.11,4.71.6,9.41.92,14.12l-.77,11.12c.31,4.73,1.05,9.48.84,14.18-.44,9.75-1.41,19.48-2.07,29.23-.05.74.65,1.53,1.01,2.3.08.72.15,1.44.23,2.16.67,3.82,1.13,7.68,2.04,11.44,2.13,8.85,4.47,17.65,6.73,26.46,1.21,8.55,2.42,17.1,3.63,25.64Z"/>
      <path class="cls-2" d="m205.26,123.46c-1.38.78-2.75,1.57-4.13,2.35-6.29.96-11.65,3.58-15.59,8.72-4.09,2.27-8.17,4.55-12.26,6.82-2.99,2.5-5.98,5-8.97,7.5-4.2-.86-6.65,1.75-9.02,4.53-3.4.4-7.21-.02-10.08,1.42-3.29,1.65-5.74,4.97-8.56,7.56-2.62,2.7-5.36,5.29-7.81,8.13-1.52,1.76-2.59,3.91-3.86,5.89,0,0-.12.13-.12.13-2.02,1.41-4.22,2.62-6.02,4.28-2.45,2.27-4.58,4.87-6.84,7.33-2.69,1.82-5.92,3.18-7.97,5.55-4.63,5.35-11.61,8.86-13.4,16.51-5.08,3.63-9.08,8.01-10.01,14.5-2.09,5.22-4.18,10.44-6.28,15.66-1.91,5.34-3.8,10.68-5.72,16.01-1.26,3.49-5.76,4.12-11.13,1.59-3.06-6.07-.38-11.72,1.25-17.45,0,0-.06.05-.06.05.27-.81.54-1.61.81-2.42.12-.35.24-.7.36-1.05.68-1.21,1.51-2.36,2.02-3.64,4.78-12.09,9.65-24.08,19.5-33.26,4.58-4.27,8.66-9.08,12.96-13.64,6.38-6.77,12.71-13.59,19.15-20.29,8.76-9.1,17.61-18.11,26.42-27.15,1.47-.49,2.94-.97,4.4-1.46.74,0,1.49,0,2.23,0,.33.15.68.23,1.04.23,4.04,3,6.7-.61,9.45-2.3,7.45-4.58,14.66-9.56,21.97-14.38,1.88-1.48,3.75-2.96,5.63-4.44,4.44-2.65,8.94-5.22,13.32-7.99,5.83-3.68,11.06-8.47,18.48-9.05.94-.07,1.73-1.92,2.6-2.94,6.9-1.7,13.21-6.09,20.81-4.6,1.56.31,3.08.76,4.62,1.15,3.34,4.04,4.94,7.95-.6,11.58-.67.44-.92,1.53-1.36,2.32-1.53.62-3.06,1.25-4.58,1.87-6.27.93-12.76,1.37-16.78,7.39-.72.11-1.44.22-2.16.33-1.12.39-2.23.78-3.35,1.18-1.53,1.03-3.06,2.05-4.58,3.08-1.92.79-3.85,1.58-5.77,2.37Z"/>
      <path class="cls-2" d="m370.45,581.3c-1.06-2.13-2.61-4.16-3.09-6.41-2.1-9.95-4.2-19.67-3.02-30.25,1.41-12.58.31-25.44.1-38.18-.01-.69-1.86-1.36-2.86-2.03,0,0-.02-.01-.02-.01,0-4.08.02-8.16.03-12.24,1.1-7.19,2.75-14.35,3.21-21.58,1.17-18.58,1.81-37.19,2.66-55.79,0,0,.33-.33.33-.33,2.01.28,4.03.56,6.04.83,1.51,3.34,2.96,6.71,4.56,10.01.42.86,1.25,1.53,1.89,2.29.11.69.21,1.38.32,2.07-.39.99-1.01,1.94-1.14,2.96-.79,6.36-1.29,12.75-2.22,19.08-.9,6.08-2.2,12.1-3.33,18.15.35,1.88.71,3.76,1.06,5.64.02.7.04,1.4.05,2.1-1.44,4.31-2.92,8.62-4.22,12.97-.1.33,1.12,1.05,1.73,1.6,0,2.22,0,4.44,0,6.66-.67,1.51-1.87,3-1.92,4.53-.22,6.66-.1,13.34-.11,20.01.02,13.04.04,26.07.05,39.11,0,2.16-.02,4.32-.03,6.48-.02,4.12-.04,8.23-.06,12.35Z"/>
      <path class="cls-2" d="m360.44,546.75c.37,9.95.9,19.89,1.04,29.84.06,4.39-1.01,8.8-.94,13.19.16,11.62.81,23.23.98,34.84.22,14.92.22,29.85.13,44.78,0,1.09-1.49,2.17-2.29,3.25,0,0-.38,0-.38,0-.31-.75-.62-1.5-.93-2.25,0-15.96.01-31.91.02-47.87.17-.29.25-.61.23-.95,0-.48,0-.97,0-1.45.01-.34-.06-.67-.21-.98,0-8.54-.01-17.07-.02-25.61.1-.35.16-.71.18-1.08,0-.39,0-.78,0-1.17-.03-.37-.09-.73-.2-1.09l.04-2.24c.13-.32.19-.65.18-.99,0-.44,0-.88,0-1.32,0-.35-.07-.69-.21-1.02.13-12.63.26-25.25.39-37.88.67,0,1.35,0,2.02,0Z"/>
      <path class="cls-2" d="m360.44,546.75c-.67,0-1.35,0-2.02,0-.14-1.48-.29-2.95-.43-4.43,0-.77-.01-1.54-.02-2.3.07-4.46.15-8.91.22-13.37-.04-.75-.08-1.49-.13-2.24.06-2.03,0-4.08.19-6.1.37-4.13.86-8.25,1.3-12.37l.99.66c-.02,4.1-.04,8.2-.06,12.3,0,.73.01,1.47.02,2.2-.02,8.55-.05,17.1-.07,25.64Z"/>
      <path class="cls-2" d="m370.45,581.3c.02-4.12.04-8.23.06-12.35.39,1.51,1.11,3.02,1.12,4.53.07,10.21-.07,20.42,0,30.63,0,1.71.64,3.42.99,5.13.12.76.23,1.51.35,2.27-.51,1.45-1.02,2.89-1.53,4.34-.32-4.7-.8-9.41-.92-14.12-.16-6.81-.06-13.63-.07-20.44Z"/>
      <path class="cls-2" d="m360.51,521.11c0-.73-.01-1.47-.02-2.2,0,.73.01,1.47.02,2.2Z"/>
      <path class="cls-2" d="m361.58,504.42c-.34.73-.69,1.46-1.03,2.19-.33-.22-.66-.44-.98-.66-.08-.36-.09-.72-.04-1.08l2.04-.46h.02Z"/>
      <path class="cls-2" d="m223.45,350.56c-.37-.34-.74-.68-1.11-1.02-5.89-3.69-11.42-8.29-17.78-10.79-5.24-2.05-7.67-4.8-8.09-10,.43-.5.86-1,1.29-1.49,3.16,4.03,6.92,7.12,11.07,10.25,4.7,3.55,10.09,5.89,14.86,8.03,8.6,3.87,17.74,8.57,28.03,6.29.67-.15,1.59-.04,2.16.32,7.31,4.56,15.49,2.69,23.25,2.79,14.4.18,28.8-.58,43.21-.94.74,0,1.49,0,2.23,0l3.31-1.08c.39,0,.78,0,1.17,0h.54s.54,0,.54,0c11.03-1.14,22.07-2.25,33.09-3.48.96-.11,1.8-1.04,2.75-1.48,2.14-1.01,4.3-1.95,6.46-2.92.04.45.08.89.11,1.34-1.16,5.27-6.01,3.55-9.24,4.93-7.69,3.29-15.69,4.25-23.99,3.87-2.66-.12-5.36.82-8.05,1.28-1.12.04-2.23.07-3.35.11-1.49.35-2.97.7-4.46,1.05-11.97.39-23.93.77-35.9,1.16-.58,0-1.17,0-1.75.01-5.65-.42-11.3-.85-16.95-1.27-1.14.27-2.27.54-3.41.81-.29.07-.58.1-.87.09-2.28-.31-4.57-.62-6.85-.93-1.49-.35-2.99-.71-4.48-1.06-.34-.11-.69-.19-1.05-.22-5.83-1.09-11.67-2.12-17.47-3.31-3.12-.64-6.18-1.55-9.26-2.34Z"/>
      <path class="cls-2" d="m361.39,464.27c.13-.31.19-.63.2-.96,0-.47.01-.93.02-1.4.02-.29.04-.59.06-.88.75-9.07,1.73-18.12,2.15-27.21.2-4.33-1.21-8.77-.8-13.05.2-2.11,2.87-3.99,4.42-5.98-.85,18.6-1.49,37.21-2.66,55.79-.45,7.23-2.1,14.39-3.21,21.58-.32,0-.64,0-.96-.01.26-9.29.51-18.59.77-27.88Z"/>
      <path class="cls-2" d="m381.73,443.09c-.54,2.2-1.07,4.4-1.61,6.6-1.68,6.75-3.36,13.49-5.04,20.24-.4-.02-.8-.05-1.2-.07,1.13-6.05,2.43-12.07,3.33-18.15.93-6.33,1.44-12.73,2.22-19.08.13-1.02.75-1.98,1.14-2.96.38,4.47.77,8.95,1.15,13.42Z"/>
      <path class="cls-2" d="m372.51,498.82c-.34,8.18-.68,16.35-1.02,24.53-.34,0-.67,0-1.01,0,0-6.67-.11-13.34.11-20.01.05-1.53,1.25-3.02,1.92-4.53Z"/>
      <path class="cls-2" d="m370.48,523.36c.34,0,.67,0,1.01,0,.04,11.51.12,23.02.07,34.53,0,1.53-.67,3.05-1.03,4.58-.02-13.04-.04-26.07-.05-39.11Z"/>
      <path class="cls-2" d="m380.71,426.42c-.15.39-.3.78-.45,1.17-.64-.76-1.47-1.42-1.89-2.29-1.59-3.3-3.05-6.67-4.56-10.01.02-.51.04-1.03.06-1.54,7.72,1.28,5.92,7.7,6.83,12.66Z"/>
      <path class="cls-2" d="m375,477.59c-.83,4.86-1.66,9.71-2.49,14.57-.61-.54-1.83-1.26-1.73-1.6,1.3-4.36,2.78-8.66,4.22-12.97Z"/>
      <path class="cls-2" d="m360.63,492.16c.32,0,.64,0,.96.01,0,4.08-.02,8.16-.03,12.24-.68.15-1.36.31-2.04.46.37-4.24.74-8.47,1.11-12.71Z"/>
      <path class="cls-2" d="m373.88,413.76c-.02.51-.04,1.03-.06,1.54-2.01-.28-4.02-.55-6.04-.83,2.03-.24,4.07-.47,6.1-.7Z"/>
      <path class="cls-2" d="m373.88,469.85c.4.02.8.05,1.2.07-.05,1.85-.1,3.71-.14,5.56-.35-1.88-.71-3.76-1.06-5.64Z"/>
      <path class="cls-2" d="m387.38,315.03c.47,2.22.6,4.59,1.48,6.63,2.09,4.83-2.28,6.84-3.97,10.02-1.09.39-2.19.77-3.28,1.16-.74-1.49-1.48-2.97-2.21-4.46,8.26-2.72,3.06-8.98,3.4-13.68.09-1.28-1.58-2.69-1.8-3.04-1.2,1.49-1.94,2.42-2.69,3.35-1.94-2.87-3.65-6.09-7.98-5.44h.02c-.78-4.53-7.8-9.8-12.57-9.41l-.22-.14c-.66-5.17-4.28-3.13-7.14-2.94-.78-.23-1.55-.47-2.33-.7-1.79-4.34-9.04-7.68-13.21-6.08-.75.09-1.51.19-2.26.28-.37-.62-.73-1.25-1.1-1.87-.7,2.49-1.24,5.98-.05,6.73,6.18,3.9,7.47,9.75,7.81,16.24-.67.68-1.34,1.36-2.02,2.04.68.05,1.36.11,2.04.16,2.85,2.8,1.48,14.63-2.2,19.04-5.82-6.2-6.28-11.67-2.03-16.94-.95-2.48-1.6-4.56-2.54-6.51-1.44-2.99-3.22-5.83-4.58-8.86-.67-1.49-1.39-3.5-.91-4.86,1.52-4.33,1.45-7.74-3.38-9.69-1.11,0-2.21,0-3.32,0,0-.37,0-.74-.02-1.11-2.03-4.23-5.22-.51-7.78-1.14,2.14-3.97-1.11-6.75-2.22-10,1.92-.04,3.84-.08,5.77-.12,1.43-.09,2.85-.17,4.28-.26,1.08.17,2.16.34,3.23.51,1.83,1.03,3.76,3.07,5.48,2.9,7.31-.7,12.84,3.63,19.1,5.89,1.5,1.16,3.01,2.32,4.51,3.48,1.66.71,3.39,1.29,4.97,2.14,5.73,3.07,12.42,4.2,16.7,10.19,2.1,2.94,6.4,4.3,9.71,6.37,1.82,1.36,3.63,2.72,5.35,4-.73,1.82-1.37,3.4-2,4.97-.01.38-.02.77-.03,1.15Zm-62.03-33.33c.23-.98.46-1.97.68-2.95-2.75-.71-5.5-1.42-8.25-2.12-.04,1.19-.38,3.32-.08,3.41,2.48.77,5.08,1.16,7.65,1.66Z"/>
      <path class="cls-2" d="m276.99,245.74c-4.74-.29-9.49-.86-14.23-.81-5.46.06-10.95,1.27-16.36.91-8.52-.57-15.53,2.91-22.73,6.53-5.15,2.59-10.58,4.65-15.89,6.94-.37.28-.73.57-1.1.85,0,0-.11.2-.11.2-.71,0-1.42.02-2.14.03,1.24-1.46,2.2-3.42,3.77-4.28,4.83-2.63,9.81-5.01,14.87-7.16,5.47-2.32,10.96-5.34,16.71-6.1,7.92-1.05,16.08-.52,24.13-.22,15.47.57,30.92,1.44,46.38,2.19,5.95.74,11.91,1.48,17.86,2.22h.56s.56,0,.56,0c.37,0,.74,0,1.11,0,.73,0,1.47,0,2.2,0,.75.37,1.5.75,2.25,1.12,3.35.73,6.69,1.47,10.04,2.2,1.11.74,2.23,1.47,3.34,2.21.74.01,1.48.02,2.22.04.37.36.75.72,1.12,1.08.38.38.75.76,1.13,1.14,0,.32-.01.63-.01.95-4.09-1.02-8.18-2.03-12.27-3.05-1.11,0-2.22.02-3.34.03-.72-.35-1.44-.7-2.16-1.05-2.18-.28-4.36-.63-6.55-.82-10.09-.86-20.18-1.67-30.27-2.5-.73-.12-1.47-.24-2.2-.37-5.59-.59-11.17-1.18-16.76-1.77-.71-.17-1.42-.34-2.13-.51Z"/>
      <path class="cls-2" d="m323.67,286.05c4.83,1.95,4.9,5.36,3.38,9.69-.48,1.36.24,3.37.91,4.86,1.36,3.03,3.13,5.86,4.58,8.86.94,1.95,1.59,4.03,2.54,6.51-4.25,5.27-3.79,10.74,2.03,16.94-.37.36-.74.72-1.11,1.09-3.41-2.89-5.48-1.61-6.73,2.18-.95,2.46-3.34,5.68-2.53,7.21,1.26,2.4,4.68,3.67,7.36,5.53-1.79,1.2-3.87,2.59-5.95,3.98,0,0-.54,0-.54,0,0,0-.54,0-.54,0-.39,0-.78,0-1.17,0-1.1.36-2.21.72-3.31,1.08-.29-.56-.58-1.13-.87-1.69-.45.57-.91,1.13-1.36,1.7-14.4.37-28.81,1.13-43.21.94-7.75-.1-15.94,1.77-23.25-2.79-.57-.36-1.49-.47-2.16-.32-10.29,2.28-19.43-2.43-28.03-6.29-4.78-2.15-10.16-4.49-14.86-8.03-4.15-3.13-7.9-6.22-11.07-10.25-.38-1.49-.76-2.98-1.14-4.47-.35-.38-.7-.75-1.05-1.13,3.69-3.72,7.39-7.43,11.08-11.15l2.25-2.24c.36-.37.72-.73,1.08-1.1.76-.74,1.52-1.48,2.28-2.21.72-.38,1.44-.76,2.17-1.14.39-.36.79-.72,1.18-1.08,1.09-2.27,2.17-4.53,3.26-6.8,0,0-.02.04-.02.04,2.24-.35,4.49-.71,6.73-1.06.39-.37.79-.74,1.18-1.11.36-.02.72-.03,1.08-.03,1.44.44,2.96.73,4.3,1.37.92.44,1.62,1.35,2.41,2.06-4.99,3.3-10.15,6.38-14.91,9.98-3.46,2.62-6.74,5.66-9.47,9.03-2.46,3.03-4.05,6.75-6.03,10.17,3.07,1.77,6.13,3.53,9.2,5.3.89.19,2.09.06,2.62.6,9.36,9.65,21.81,10.97,34.09,12.81,4.24.64,8.45,1.61,12.71,1.98,2.61.23,5.29-.38,8.52-.66-.89-3.61-1.57-6.34-2.24-9.08,1.14-.77,2.27-1.53,3.41-2.3,1.33,1.48,2.74,2.89,3.97,4.45,2.41,3.05,5.16,5.27,9.39,4.44,0,0,0,.01,0,.01,0,.38,0,.76-.01,1.14.04.39.08.79.12,1.18.31.31.62.62.93.93.4.01.81.02,1.21.03l.52.02.52-.03c5.21-1.46,10.43-2.92,15.64-4.38,1.2,5.03,3.26,5.79,6.82,2.57,2.35-2.13,4.46-5.05,7.24-6.04,4.15-1.48,5.48-3.74,4.84-7.73.01-.35.03-.7.04-1.05,1.59.2,3.19.39,5.23.64-.28-2.19-.54-4.21-.8-6.23,0-1.51-.02-3.01-.03-4.52.09-.35.08-.7-.03-1.04.37-1.71,1.5-3.72.97-5.08-2.27-5.83-5.02-11.47-7.6-17.17.64-1.75,1.38-3.48,1.87-5.27.32-1.18.25-2.46.36-3.69,0-.73,0-1.47,0-2.2Zm-23.87,61.77c.03.49.06.98.08,1.48,1.06-.17,2.12-.33,3.18-.5-.04-.33-.09-.65-.13-.98h-3.14Z"/>
      <path class="cls-2" d="m328.14,352.9c2.08-1.39,4.16-2.78,5.95-3.98-2.68-1.86-6.1-3.13-7.36-5.53-.81-1.54,1.58-4.75,2.53-7.21.42.68,1.32,1.49,1.18,2.02-.43,1.59-1.27,3.07-2.5,5.82,3.23-.54,5.07-.85,6.91-1.16,2.76,0,5.69.58,8.23-.16,3.5-1.03,8.5-.1,9.51-5.56,2.24-.74,4.47-1.48,6.71-2.22,0,1.38,0,2.77,0,4.24,3.53-2.02,10.21-.01,8.93-7.47h0c1.24.94,2.49,1.89,2.83,2.15,1.75-3.51,3.35-6.73,4.96-9.95,0,0,.01-.02.01-.02.75.01,1.5.03,2.25.04.37,1.49.75,2.97,1.12,4.46.74,1.49,1.48,2.97,2.21,4.46.03.78.06,1.56.1,2.34,0,0,.04-.04.04-.04-5.96.8-8.56,5.42-11.31,9.89-2.15.97-4.32,1.91-6.46,2.92-.95.45-1.79,1.37-2.75,1.48-11.02,1.23-22.06,2.34-33.09,3.48Z"/>
      <path class="cls-2" d="m214.44,303.83c-.72.38-1.44.76-2.17,1.14-.76.74-1.52,1.48-2.28,2.21-.36.37-.72.73-1.08,1.1-.75.75-1.5,1.49-2.25,2.23-3.69,3.72-7.39,7.43-11.08,11.15.35.38.7.75,1.05,1.12.38,1.49.76,2.98,1.14,4.47-.43.5-.86.99-1.29,1.49-1.39-2.76-2.78-5.51-4.17-8.27.02-.66.03-1.31.05-1.97,1.51-1.47,3.01-2.94,4.52-4.41,0,0,.1.05.1.05,6.69-5.99,13.38-11.97,20.08-17.96.61-.09,1.21-.17,1.82-.26-1.09,2.27-2.17,4.53-3.26,6.8-.39.36-.79.72-1.18,1.08Z"/>
      <path class="cls-2" d="m370.44,345.03c2.75-4.47,5.35-9.09,11.31-9.89-3.73,3.74-7.46,7.49-11.2,11.23-.04-.45-.08-.89-.11-1.34Z"/>
      <path class="cls-2" d="m320.34,354.01c.45-.57.91-1.13,1.36-1.7.29.56.58,1.13.87,1.69-.74,0-1.49,0-2.23,0Z"/>
      <path class="cls-2" d="m325.88,352.92c.39,0,.78,0,1.17,0-.39,0-.78,0-1.17,0Z"/>
      <path class="cls-2" d="m381.71,335.17c-.03-.78-.06-1.56-.1-2.34,1.09-.39,2.19-.77,3.28-1.16-1.06,1.17-2.12,2.33-3.18,3.5Z"/>
      <path class="cls-2" d="m310.29,244.83c-15.46-.75-30.91-1.63-46.38-2.19-8.04-.3-16.21-.83-24.13.22-5.74.76-11.23,3.78-16.71,6.1-5.06,2.14-10.04,4.53-14.87,7.16-1.57.85-2.53,2.82-3.77,4.28-1.23.61-2.58,1.06-3.66,1.87-4.6,3.44-9.26,6.82-13.58,10.59-1.42,1.24-1.85,3.62-2.73,5.47,0,0,.03-.03.03-.03-5.03-.83-7.5,2.55-10.04,5.97-.84,1.13-2.04,2.45-3.26,2.69-.98.19-3.26-1.23-3.21-1.77.21-2.23.78-4.56,1.81-6.55,1.25-2.44,3.09-4.59,4.67-6.87,2.24-1.93,4.47-3.86,6.71-5.79.59-.52,1.18-1.04,1.77-1.55,0,0-.04-.03-.04-.03,6.03,2,6.38-3.87,9.04-6.53,0,0,.03-.05.03-.05,1.29-.1,2.81.2,3.82-.38,5.17-2.93,10.27-5.97,15.26-9.2,2.44-1.58,4.56-3.63,6.83-5.47.28-.2.59-.27.93-.23,5.96-1.52,11.87-3.31,17.89-4.49,7-1.37,14.09-2.88,21.18-3.1,9.55-.3,19.14.52,28.7.98,1.98.09,3.94.69,5.91,1.06.37,0,.74,0,1.11,0,.74,0,1.49,0,2.23,0,.37,0,.74,0,1.11,0,1.86,0,3.72,0,5.58.01,2.75.84,5.58,1.49,8.21,2.61,1.47.62,2.61,2.03,3.89,3.09-1.45.7-2.9,1.4-4.34,2.1Z"/>
      <path class="cls-2" d="m292.49,237.01c-1.97-.37-3.92-.97-5.91-1.06-9.56-.46-19.15-1.28-28.7-.98-7.09.22-14.18,1.73-21.18,3.1-6.03,1.18-11.93,2.97-17.89,4.49,1.95-1.32,3.75-3.39,5.89-3.84,12.38-2.61,24.17-7.72,37.62-5.38,10.99,1.91,22.46,1.12,33.71,1.53,6.99.26,13.98.53,20.97.79,4.84.89,9.68,1.78,14.53,2.66,1.11.65,2.21,1.31,3.32,1.96-1.12.02-2.24.05-3.36.07-1.11,0-2.23,0-3.34,0l-11.13-1.12-14.49-2.19c-1.86,0-3.72,0-5.58-.01-.37,0-.74,0-1.11,0-.74,0-1.49,0-2.23,0-.37,0-.74,0-1.11,0Z"/>
      <path class="cls-2" d="m217.88,242.78c-2.27,1.84-4.39,3.89-6.83,5.47-4.99,3.23-10.09,6.27-15.26,9.2-1.02.58-2.54.27-3.82.38,6.27-4.03,12.53-8.08,18.83-12.08,1.69-1.07,3.48-1.97,5.22-2.95.62,0,1.24-.01,1.87-.02Z"/>
      <path class="cls-2" d="m361.66,260.29c-.38-.34-.76-.67-1.14-1.01-2.62-1.16-5.24-2.33-7.86-3.49,0-.32,0-.63.01-.95,2.54-.11,5.42-1.04,7.57-.18,5.97,2.41,6.61-1.02,6.9-5.37,3.78,2.08,7.44,4.44,11.38,6.15,2.33,1.01,5.11.98,7.68,1.41.72.37,1.45.74,2.17,1.11.38.42.75.84,1.13,1.26,5.5,4.53,11.01,9.06,16.51,13.59,0,0,0,0,0,0,.76.37,1.52.74,2.29,1.11,1.51,1.13,3.02,2.27,4.54,3.4.28.29.56.58.85.87.12.36.23.71.35,1.07.7,5.8,4.02,8.76,9.81,9.05,0,3.26,0,6.53,0,9.79-6.28,2.77-11.72,1.19-16.61-3.22-.42-.31-.83-.61-1.25-.92,0,0,0,.02,0,.02-.74-.75-1.48-1.5-2.21-2.25,0,0,.03.04.03.04-.66-3.73-2.78-5.77-6.68-5.69-.35-.35-.7-.7-1.05-1.04-.33-1.04-.34-2.41-1.03-3.07-3.83-3.68-7.8-7.22-11.76-10.75-1.5-1.33-2.99-2.75-4.71-3.73-4.24-2.43-8.61-4.63-12.92-6.92-1.32-.09-2.64-.19-3.96-.28Z"/>
      <path class="cls-2" d="m386.2,256.86c-2.58-.44-5.35-.41-7.68-1.41-3.94-1.7-7.6-4.06-11.38-6.15-1.86-.01-3.71-.03-5.57-.04-.37,0-.74,0-1.1,0h0c-.38-.35-.75-.71-1.13-1.07-1.11-.01-2.23-.02-3.34-.04-2.95-3.89-6.35-6.76-11.76-5.8-.47.08-1.18-1.18-1.77-1.82l.23-.26c4.43,1.1,8.86,2.19,13.29,3.29,10.07,4.43,20.13,8.87,30.2,13.3Z"/>
      <path class="cls-2" d="m389.5,259.22c-.38-.42-.75-.84-1.13-1.26.38.42.75.84,1.13,1.26Z"/>
      <path class="cls-2" d="m206.69,260.17c.37-.28.73-.57,1.1-.85-.12.31-.24.62-.38.93-.24-.03-.48-.05-.72-.08Z"/>
      <path class="cls-2" d="m184.47,278.33c.88-1.86,1.31-4.23,2.73-5.47,4.31-3.78,8.98-7.15,13.58-10.59,1.08-.81,2.44-1.26,3.66-1.87.71,0,1.42-.02,2.14-.03-2.12,2.69-4.23,5.39-6.35,8.08-4.16,2.95-8.33,5.89-12.49,8.84-1.09.35-2.17.69-3.26,1.04Z"/>
      <path class="cls-2" d="m296.95,270.24c3.33.44,6.68.76,9.98,1.35,3.08.55,6.11,1.38,9.16,2.08-1.92.04-3.85.08-5.77.12-8.13,0-16.27-.18-24.39.07-2.76.08-5.47,1.39-8.25,1.82-3.87.6-7.78.85-11.67,1.33-2.33.29-4.64.76-6.96,1.15.37-.73.74-1.46,1.11-2.19,11.81-4.81,24.13-6.36,36.78-5.73Z"/>
      <path class="cls-2" d="m260.16,275.97c-.37.73-.74,1.46-1.11,2.19-.92.07-1.96-.11-2.75.25-9.13,4.09-18.25,8.22-27.3,12.5-.68.32-.78,1.89-1.15,2.88-.36,0-.72,0-1.08.03-.39.37-.79.74-1.18,1.11-2.24.35-4.49.71-6.73,1.06,3.51-2.78,6.72-6.14,10.61-8.23,6.68-3.58,13.79-6.36,20.71-9.48,3.33-.77,6.66-1.54,9.99-2.31Z"/>
      <path class="cls-2" d="m423.84,288.31c-5.79-.29-9.11-3.25-9.81-9.05,3.27,3.02,6.54,6.03,9.81,9.05Z"/>
      <path class="cls-2" d="m413.68,278.2c-.28-.29-.56-.58-.85-.87.28.29.56.58.85.87Z"/>
      <path class="cls-2" d="m334.85,240.29c-1.11-.65-2.21-1.31-3.32-1.96,3.72.65,7.45,1.29,11.17,1.94,0,0-.23.26-.23.26-2.54-.06-5.09-.12-7.63-.19v-.05Z"/>
      <path class="cls-2" d="m174.46,271.78c-1.58,2.27-3.42,4.42-4.67,6.87-1.02,1.99-1.59,4.32-1.81,6.55-.05.54,2.24,1.96,3.21,1.77,1.23-.24,2.43-1.56,3.26-2.69,2.54-3.42,5.01-6.8,10.04-5.97-3.16,3.25-6.23,6.59-9.52,9.71-1.41,1.34-3.26,2.23-4.91,3.32-.06-.35,0-.89-.2-1.03-6.82-4.56-6.93-4.95-3.17-11.96,2.59-2.19,5.17-4.37,7.76-6.56Z"/>
      <path class="cls-2" d="m191.95,257.87c-2.66,2.66-3.01,8.53-9.04,6.53.24-.48.47-.97.71-1.45,1.08-.78,2.15-1.56,3.23-2.33,1.7-.92,3.4-1.83,5.1-2.75Z"/>
      <path class="cls-2" d="m182.94,264.43c-.59.52-1.18,1.04-1.77,1.55.59-.52,1.18-1.04,1.77-1.55Z"/>
      <path class="cls-2" d="m227.85,293.79c.37-.99.46-2.56,1.15-2.88,9.05-4.28,18.16-8.41,27.3-12.5.8-.36,1.83-.18,2.75-.25,2.32-.39,4.63-.86,6.96-1.15,3.88-.49,7.8-.74,11.67-1.33,2.78-.43,5.49-1.74,8.25-1.82,8.12-.24,16.26-.07,24.39-.07,1.12,3.25,4.36,6.03,2.22,10-5.45.75-10.88,1.9-16.35,2.17-15.58.78-27.17,11-27.12,26.8-.71,1.13-1.42,2.25-2.13,3.38,0,1.89-.48,3.96.11,5.65,1.56,4.5,3.58,8.85,5.41,13.25-1.14.77-2.27,1.53-3.41,2.3-1.82-.41-3.64-.81-5.47-1.22-.03-1.47-.06-2.93-.09-4.4-.06-1.11-.06-2.22-.19-3.32-.63-5.55-2.75-11.44-1.55-16.55,1.33-5.63.39-12.75,6.67-16.73,1.14-.72,2.04-2.8,1.97-4.2-.08-1.62-.99-4.09-2.19-4.58-2.29-.94-4.93-.56-4.74,3.15-.33-.14-.66-.17-1-.07-6.52-2.23-12.12,2.19-18.28,2.7-1.14.09-2.08,2.47-3.12,3.79-2.17.43-4.35.86-6.52,1.29-.8-.7-1.49-1.62-2.41-2.06-1.35-.64-2.86-.93-4.3-1.37Z"/>
      <path class="cls-2" d="m269.08,312.76c-.05-15.8,11.53-26.01,27.12-26.8,5.47-.28,10.9-1.42,16.35-2.17,2.56.63,5.75-3.09,7.78,1.14-.73.36-1.47.71-2.2,1.07-7.16,1.13-14.31,3.11-21.47,3.16-7.15.04-12.81,2.23-17.89,6.82l-.83,1.11c-1.44,2.3-2.89,4.59-4.33,6.89-.53,1.25-1.07,2.5-1.6,3.74.08.29.29.5.65.62-.93,1.68-1.88,3.35-2.82,5.03-.25-.2-.5-.4-.75-.6Z"/>
      <path class="cls-2" d="m332.63,290.57c11.5,13.13,12.09,28.19,7.37,43.97-.56,1.86-3.4,3.04-5.18,4.54.39-1.69.79-3.38,1.18-5.08.37-.36.74-.72,1.11-1.09,3.68-4.41,5.05-16.24,2.2-19.04,0-.73-.02-1.47-.02-2.2-.33-6.49-1.62-12.34-7.81-16.24-1.19-.75-.65-4.23.05-6.73.37.62.73,1.25,1.1,1.87Z"/>
      <path class="cls-2" d="m318.12,286c.73-.36,1.47-.71,2.2-1.07.02.37.02.74.02,1.11,0,1.12.02,2.23.02,3.35.36,2.61.71,5.21,1.07,7.82,2.58,5.71,5.33,11.34,7.6,17.17.53,1.36-.6,3.37-.97,5.08-3.66-7.06-7.32-14.12-10.98-21.18.05-3.31.11-6.61.16-9.92.29-.79.58-1.57.88-2.36Z"/>
      <path class="cls-2" d="m371.59,312.78c-.42-1.07-.84-2.14-1.25-3.22,4.34-.65,6.04,2.57,7.98,5.44-.39,1.85-.78,3.71-1.17,5.56-.37,1.1-.74,2.21-1.11,3.31,0,0-.01.02-.01.02-4.6.6-7.08,3.3-7.79,7.79,0,0,0,0,0,0-1.55,0-3.11-.01-4.66-.02,2.27-2.97,4.54-5.94,6.81-8.91,1.5-2.2,3-4.4,4.78-7.01-1.18-.98-2.38-1.98-3.57-2.97Z"/>
      <path class="cls-2" d="m379.19,299.62c1.63,1.76,3.25,3.52,4.88,5.28-3.31-2.07-7.61-3.43-9.71-6.37-4.28-5.99-10.97-7.11-16.7-10.19-1.58-.85-3.31-1.43-4.97-2.14,5.29-.57,10.01-.05,14.21,4.08,3.64,3.58,8.16,6.26,12.29,9.34Z"/>
      <path class="cls-2" d="m377.14,320.57c.39-1.85.78-3.71,1.17-5.56.74-.93,1.49-1.85,2.69-3.35.22.35,1.9,1.76,1.8,3.04-.34,4.71,4.86,10.96-3.4,13.68-.37-1.49-.75-2.97-1.12-4.46-.38-1.12-.76-2.23-1.14-3.35Z"/>
      <path class="cls-2" d="m325.35,281.69c-2.57-.5-5.16-.9-7.65-1.66-.3-.09.04-2.22.08-3.41,2.75.71,5.5,1.42,8.25,2.12-.23.98-.46,1.97-.68,2.95Z"/>
      <path class="cls-2" d="m370.35,309.58c-4.19-3.14-8.38-6.29-12.57-9.43,4.76-.38,11.79,4.89,12.57,9.43Z"/>
      <path class="cls-2" d="m348.09,296.37c-4.4-2.03-8.8-4.05-13.21-6.08,4.16-1.6,11.41,1.74,13.21,6.08Z"/>
      <path class="cls-2" d="m357.57,300.02c-2.38-.98-4.76-1.96-7.14-2.94,2.86-.18,6.49-2.22,7.14,2.94Z"/>
      <path class="cls-2" d="m320.37,289.4c0-1.12-.02-2.23-.02-3.35,1.11,0,2.21,0,3.32,0,0,.73,0,1.47,0,2.2-1.1.38-2.2.76-3.29,1.14Z"/>
      <path class="cls-2" d="m339.28,311.67c0,.73.02,1.47.02,2.2-.68-.05-1.36-.11-2.04-.16.67-.68,1.34-1.36,2.02-2.04Z"/>
      <path class="cls-2" d="m365.63,260.58c4.32,2.29,8.68,4.49,12.92,6.92,1.72.98,3.21,2.4,4.71,3.73,3.97,3.53,7.94,7.07,11.76,10.75.69.66.7,2.03,1.03,3.07-1.05-.45-2.1-.91-3.15-1.36-1.52-.71-3.03-1.43-4.55-2.14-1.95-3.24-2.89-7.48-7.74-7.87-4.99-4.37-9.99-8.73-14.98-13.1Z"/>
      <path class="cls-2" d="m397.1,286.09c3.91-.08,6.02,1.96,6.68,5.69-2.23-1.9-4.46-3.79-6.68-5.69Z"/>
      <path class="cls-2" d="m403.75,291.74c.74.75,1.48,1.5,2.21,2.25-.74-.75-1.48-1.5-2.21-2.25Z"/>
      <path class="cls-2" d="m405.97,293.97c.42.31.84.61,1.25.92-.42-.31-.84-.61-1.25-.92Z"/>
      <path class="cls-2" d="m356.01,248.14c1.11.01,2.23.02,3.34.04.38.36.75.72,1.13,1.08,0,0,0,0,0,0,.37,0,.74,0,1.1,0,1.86.01,3.71.03,5.57.04-.29,4.35-.93,7.78-6.9,5.37-2.15-.87-5.02.07-7.57.18-.38-.38-.75-.76-1.13-1.14-.37-.36-.75-.72-1.12-1.08-.74-.01-1.48-.02-2.22-.03-.09-2.28-.27-4.44-3.34-2.21-3.35-.73-6.69-1.47-10.04-2.2-.75-.37-1.5-.75-2.25-1.12-.73,0-1.47,0-2.2,0-.18-.47-.37-.94-.55-1.41l-.56,1.4h-.56s-.56,0-.56,0c-3.68-1.69-7.4-3.32-10.99-5.17-.4-.2-.11-1.73-.14-2.65,3.71.37,7.42.75,11.13,1.12,1.11,0,2.23,0,3.34,0,1.12-.02,2.24-.05,3.36-.07,0,0,0,.05,0,.05.17,1.37.34,2.75.37,2.95,4.58,1.19,8.27,2.21,12,3.09,2.91.68,5.86,1.18,8.79,1.77Z"/>
      <path class="cls-2" d="m317.02,239.23c.03.92-.26,2.45.14,2.65,3.6,1.86,7.31,3.48,10.99,5.17-5.95-.74-11.91-1.48-17.86-2.22,1.45-.7,2.89-1.4,4.34-2.1-1.29-1.05-2.42-2.46-3.89-3.09-2.63-1.12-5.46-1.76-8.21-2.61,4.83.73,9.66,1.46,14.49,2.19Z"/>
      <path class="cls-2" d="m344.86,250.38c3.08-2.24,3.25-.08,3.34,2.21-1.11-.74-2.23-1.47-3.34-2.21Z"/>
      <path class="cls-2" d="m332.57,247.06c.75.37,1.5.75,2.25,1.12-.75-.37-1.5-.75-2.25-1.12Z"/>
      <path class="cls-2" d="m350.42,252.62c.37.36.75.72,1.12,1.08-.37-.36-.75-.72-1.12-1.08Z"/>
      <path class="cls-2" d="m329.26,247.06l.56-1.4c.18.47.37.94.55,1.41-.37,0-.74,0-1.11,0Z"/>
      <path class="cls-2" d="m263.59,336.13c1.82.41,3.64.81,5.47,1.22.68,2.74,1.35,5.47,2.24,9.08-3.23.28-5.92.89-8.52.66-4.26-.38-8.47-1.35-12.71-1.98-12.27-1.84-24.72-3.16-34.09-12.81-.52-.54-1.73-.42-2.62-.6-.73-1.12-1.46-2.23-2.2-3.35,2.95,1.17,5.89,2.33,8.84,3.5l-.06-.04c3.72,2.21,7.18,5.4,11.2,6.42,9.8,2.48,19.83,4.15,29.84,5.69,3.22.49,4.83-1.46,2.69-4.78.12-.24.1-.45-.09-.65-.37-.45-.74-.9-1.1-1.35l.1.06c-.04-.34,0-.67.12-.99.3,0,.59-.01.88-.06Z"/>
      <path class="cls-2" d="m211.17,328.34c.73,1.12,1.46,2.23,2.2,3.35-3.07-1.77-6.13-3.53-9.2-5.3,1.97-3.42,3.57-7.14,6.03-10.17,2.73-3.37,6.01-6.41,9.47-9.03,4.76-3.6,9.92-6.68,14.91-9.98,2.17-.43,4.35-.86,6.53-1.29,0,0,.32.37.32.37-8,5.82-16,11.65-23.99,17.47-1.76,2.19-3.51,4.38-5.27,6.57-1.65,1.44-3.3,2.89-5,4.38,1.71,1.54,2.87,2.59,4.02,3.63Z"/>
      <path class="cls-2" d="m312.4,336.95c1.12-.73,2.25-1.47,3.37-2.2.26.19.52.37.78.56.12-.49.25-.98.37-1.47,0,0-.04.01-.04.01,2.26-.73,4.51-1.46,6.77-2.19.64,4-.69,6.25-4.84,7.73-2.78.99-4.89,3.91-7.24,6.04-3.56,3.22-5.62,2.46-6.82-2.57,2.55-1.97,5.1-3.95,7.65-5.92Z"/>
      <path class="cls-2" d="m281.48,339.49c1.45,1.48,2.9,2.97,4.35,4.45-4.22.83-6.97-1.39-9.39-4.44-1.23-1.56-2.64-2.97-3.97-4.45-1.83-4.41-3.85-8.75-5.41-13.25-.59-1.69-.1-3.76-.11-5.65.66-.01,1.33-.02,1.99-.03,1.72,5.49.45,12.21,6.53,15.91l-.05-.12c.47.71.95,1.42,1.42,2.12l-.05-.04c1.47,1.63,2.94,3.25,4.42,4.88-.07.27.01.48.26.62Z"/>
      <path class="cls-2" d="m312.4,336.95c-2.55,1.97-5.1,3.95-7.65,5.92-5.21,1.46-10.43,2.92-15.64,4.38-.35,0-.69,0-1.04,0-.4-.01-.81-.02-1.21-.03-.31-.31-.62-.62-.93-.93-.04-.39-.08-.79-.12-1.18.41-.02.81-.04,1.22-.05,8.46-2.7,16.91-5.39,25.37-8.09Z"/>
      <path class="cls-2" d="m335.99,334c-.39,1.69-.79,3.38-1.18,5.08.02.58.04,1.16.06,1.75,0,.68-.02,1.36-.03,2.03-1.84.31-3.68.62-6.91,1.16,1.23-2.75,2.07-4.23,2.5-5.82.14-.53-.76-1.34-1.18-2.02,1.25-3.8,3.32-5.07,6.73-2.18Z"/>
      <path class="cls-2" d="m323.65,331.66c-2.26.73-4.51,1.46-6.77,2.19,3.74-4.45,7.48-8.9,11.21-13.35,0,1.51.02,3.01.03,4.52-1.48,1.86-2.95,3.72-4.43,5.58-.02.35-.03.7-.04,1.05Z"/>
      <path class="cls-2" d="m320.37,289.4c1.1-.38,2.2-.76,3.29-1.14-.11,1.23-.04,2.51-.36,3.69-.48,1.79-1.23,3.52-1.87,5.27-.36-2.61-.71-5.21-1.07-7.82Z"/>
      <path class="cls-2" d="m323.69,330.61c1.48-1.86,2.95-3.72,4.43-5.58.26,2.02.52,4.03.8,6.23-2.04-.25-3.64-.45-5.23-.64Z"/>
      <path class="cls-2" d="m299.79,347.83h3.14c.04.33.09.65.13.98-1.06.17-2.12.33-3.18.5-.03-.49-.06-.98-.08-1.48Z"/>
      <path class="cls-2" d="m206.66,310.52c.75-.74,1.5-1.49,2.25-2.23-.75.74-1.5,1.49-2.25,2.23Z"/>
      <path class="cls-2" d="m209.99,307.18c.76-.74,1.52-1.48,2.28-2.21-.76.74-1.52,1.48-2.28,2.21Z"/>
      <path class="cls-2" d="m288.07,347.24c.35,0,.69,0,1.04,0,0,0-.52.03-.52.03l-.52-.02Z"/>
      <path class="cls-2" d="m285.93,346.28c.31.31.62.62.93.93-.31-.31-.62-.62-.93-.93Z"/>
      <path class="cls-2" d="m287.03,345.04c-.41.02-.81.04-1.22.05,0-.38,0-.76.01-1.14.4.36.8.72,1.2,1.08Z"/>
      <path class="cls-2" d="m225.58,294.93c.39-.37.79-.74,1.18-1.11-.39.37-.79.74-1.18,1.11Z"/>
      <path class="cls-2" d="m196.63,322.79c-.35-.37-.7-.75-1.05-1.12.35.37.7.75,1.05,1.12Z"/>
      <path class="cls-2" d="m214.44,303.83c.39-.36.79-.72,1.18-1.08-.39.36-.79.72-1.18,1.08Z"/>
      <path class="cls-2" d="m363.56,331.67c1.55,0,3.11.02,4.66.02,1.28,7.45-5.4,5.44-8.93,7.47,0-1.48,0-2.86,0-4.24,1.42-1.08,2.85-2.16,4.27-3.25Z"/>
      <path class="cls-2" d="m334.85,342.85c0-.68.02-1.36.03-2.03,5.9-1.23,11.81-2.46,17.71-3.69-1.01,5.46-6.01,4.53-9.51,5.56-2.54.75-5.47.16-8.23.16Z"/>
      <path class="cls-2" d="m368.23,331.69c.71-4.49,3.19-7.19,7.79-7.79-1.6,3.22-3.21,6.43-4.96,9.95-.35-.26-1.59-1.21-2.83-2.16Z"/>
      <path class="cls-2" d="m377.14,320.57c.38,1.12.76,2.23,1.14,3.35-.75-.01-1.5-.03-2.25-.04.37-1.1.74-2.21,1.11-3.31Z"/>
      <path class="cls-2" d="m295.84,237.02c.37,0,.74,0,1.11,0-.37,0-.74,0-1.11,0Z"/>
      <path class="cls-2" d="m292.49,237.01c.37,0,.74,0,1.11,0-.37,0-.74,0-1.11,0Z"/>
      <path class="cls-2" d="m331.49,240.36c-1.11,0-2.23,0-3.34,0,1.11,0,2.23,0,3.34,0Z"/>
      <path class="cls-2" d="m356.01,248.14c-2.93-.58-5.89-1.08-8.79-1.77-3.73-.88-7.42-1.9-12-3.09-.03-.2-.2-1.57-.37-2.95,2.55.06,5.09.12,7.63.19.6.64,1.3,1.9,1.77,1.82,5.4-.96,8.81,1.91,11.76,5.8Z"/>
      <path class="cls-2" d="m361.57,249.26c-.37,0-.74,0-1.1,0,.37,0,.74,0,1.1,0Z"/>
      <path class="cls-2" d="m360.47,249.26c-.38-.36-.75-.72-1.13-1.08.38.36.75.72,1.13,1.08Z"/>
      <path class="cls-2" d="m263.48,289.5c-.19-3.71,2.44-4.09,4.74-3.15,1.21.49,2.11,2.96,2.19,4.58.07,1.4-.83,3.47-1.97,4.2-6.28,3.98-5.35,11.1-6.67,16.73-1.21,5.11.92,11,1.55,16.55.12,1.1.13,2.21.19,3.32-.7-.01-1.41-.02-2.11-.03-.42-.69-.84-1.38-1.26-2.07-.29-.41-.58-.82-.87-1.23-.1-1.85-.2-3.7-.31-5.54.01-3.04.03-6.08.04-9.13.58-3.35,1.13-6.7,1.75-10.04.88-4.73,1.82-9.46,2.73-14.18Z"/>
      <path class="cls-2" d="m262.48,289.43c-1.91.74-3.81,1.52-5.74,2.21-4.11,1.47-8.23,2.9-12.35,4.35-.99.1-1.98.2-2.97.29,0,0-.32-.36-.32-.37,1.03-1.32,1.98-3.7,3.11-3.79,6.16-.51,11.76-4.93,18.28-2.7Z"/>
      <path class="cls-2" d="m261.39,331.7c.7.01,1.41.02,2.11.03.03,1.47.06,2.94.09,4.4-.29.04-.59.06-.88.05-.44-1.5-.88-2.99-1.32-4.49Z"/>
      <path class="cls-2" d="m268.94,316.12c-.66,0-1.33.02-1.99.03.71-1.13,1.42-2.25,2.13-3.38.25.2.5.4.75.6-.29.92-.59,1.83-.88,2.75Z"/>
      <path class="cls-2" d="m303.63,334.92c-1.09.1-2.18.19-3.27.29-1.81-.72-3.59-1.54-5.44-2.13-5.04-1.59-7.94-4.8-8.08-10.23.01-.78.03-1.56.04-2.34-.73-1.09-1.46-2.18-2.18-3.27-.75-1.11-1.5-2.22-2.26-3.33-.34-.75-.68-1.49-1.02-2.24,1.97.11,3.93.22,6.04.34.79,2.4,1.8,5.48,2.81,8.57l3.21,2.29c.42.72.84,1.44,1.25,2.17,1.03,1.36,2.05,2.71,3.08,4.07.83-.98,1.66-1.96,2.49-2.95,1.85-1.12,3.71-2.24,5.56-3.35.37-.38.74-.75,1.11-1.13-.73-5.89-1.46-11.78-2.24-18.14,2.41.14,4,.23,5.59.32.44,2.86-.05,6.45,1.51,8.43,4.02,5.12,2.49,9.93.72,15.01-2.98,2.54-5.95,5.08-8.93,7.62Z"/>
      <path class="cls-2" d="m281.41,311.67c.34.75.68,1.49,1.02,2.24.75,1.11,1.5,2.22,2.26,3.33.73,1.09,1.46,2.18,2.18,3.27-.01.78-.03,1.56-.04,2.34.14,5.43,3.04,8.64,8.08,10.23,1.85.58,3.63,1.41,5.44,2.13-1.51.73-3.02,1.46-4.54,2.19-9.03-2.36-12.1-9.29-14.67-17.44-1.58-5.02-.96-9.28.22-13.89.91-.65,1.82-1.29,2.73-1.94.57-.42,1.15-.84,1.72-1.27,2.47-1.4,4.94-2.8,7.41-4.21.51-.16,1.02-.32,1.53-.48,1.48,2.21,2.97,4.42,4.45,6.63,0,.43-.01.86-.02,1.29l-.02.03c-1.47-.41-2.94-.81-4.42-1.22-3.11-1.82-5.64-1.87-6.79,2.24-2.19,1.51-4.37,3.03-6.56,4.54Z"/>
      <path class="cls-2" d="m294.72,325.03c-.42-.72-.84-1.44-1.25-2.17,0,0,.26-.15.26-.15,1.21.28,2.61,1.1,3.58.75,2.19-.8,4.86-1.73,5.97-3.48.71-1.11,3.64-4.58-.79-5.89-1.51-1.17-3.01-2.34-4.52-3.51.4-1.49.8-2.99,1.21-4.48,0,0,.02-.03.02-.03.35-.29.71-.58,1.06-.87,1.18-1.9,2.36-3.8,3.55-5.7,0,0-.02.03-.02.03,5.36-.64,10.12.15,13.01,5.42-2.16-.37-4.31-.74-6.47-1.11-1.59-.09-3.18-.18-5.59-.32.79,6.36,1.51,12.25,2.24,18.14-.37.38-.74.75-1.11,1.13-1.85,1.12-3.71,2.24-5.56,3.35-1.86-.37-3.71-.75-5.57-1.12Z"/>
      <path class="cls-2" d="m310.32,303.86c2.16.37,4.31.74,6.47,1.11.11.34.19.69.24,1.05,1,5.84,2.19,11.57.39,17.6-.87,2.91-2.07,3.99-4.87,3.68,1.77-5.08,3.3-9.89-.72-15.01-1.56-1.98-1.07-5.57-1.51-8.43Z"/>
      <path class="cls-2" d="m312.56,327.3c2.8.31,4-.77,4.87-3.68,1.8-6.02.6-11.76-.39-17.6,2.88,4.04,6.08,8.08,4.32,13.48-2.8,8.61-7.75,14.96-17.72,15.41,2.98-2.54,5.95-5.08,8.93-7.62Z"/>
      <path class="cls-2" d="m316.92,333.84c-.12.49-.25.98-.37,1.47-.26-.19-.52-.37-.78-.56.38-.3.77-.6,1.15-.9Z"/>
      <path class="cls-2" d="m258.96,322.85c-.31-2.97-.61-5.94-.92-8.91.33-.04.65-.11.96-.21-.01,3.04-.03,6.08-.04,9.13Z"/>
      <path class="cls-2" d="m260.13,329.63c-.29-.41-.58-.82-.87-1.23.29.41.58.82.87,1.23Z"/>
      <path class="cls-2" d="m299.17,306.11c-.4,1.49-.8,2.99-1.21,4.48-1.1.69-2.19,1.37-3.29,2.06-4.53,1.01-3.16,3.99-2.28,6.81-.71.37-1.42.74-2.13,1.11-1.01-3.09-2.03-6.17-2.81-8.57-2.11-.12-4.07-.23-6.04-.34,2.19-1.51,4.38-3.03,6.56-4.54,2.95,1.33,6.05,3.13,6.79-2.24,1.47.41,2.94.81,4.42,1.22Z"/>
      <path class="cls-2" d="m294.72,325.03c1.86.37,3.71.75,5.57,1.12-.83.98-1.66,1.96-2.49,2.95-1.03-1.36-2.05-2.71-3.08-4.07Z"/>
      <path class="cls-2" d="m290.26,320.58c.71-.37,1.42-.74,2.13-1.11.44,1.09.89,2.17,1.33,3.26,0,0-.25.15-.26.15-1.07-.76-2.14-1.53-3.21-2.29Z"/>
      <path class="cls-2" d="m284.68,317.25c-.75-1.11-1.5-2.22-2.26-3.33.75,1.11,1.5,2.22,2.26,3.33Z"/>
      <path class="cls-2" d="m286.83,322.85c.01-.78.03-1.56.04-2.34-.01.78-.03,1.56-.04,2.34Z"/>
      <path class="cls-2" d="m305.85,322.8c.37-.38.74-.75,1.11-1.13-.37.38-.74.75-1.11,1.13Z"/>
      <path class="cls-2" d="m294.76,304.89c-.73,5.37-3.83,3.58-6.79,2.24,1.15-4.12,3.67-4.07,6.79-2.24Z"/>
      <path class="cls-2" d="m299.21,304.8c.35.14.69.28,1.04.42-.35.29-.71.58-1.06.87,0-.43.01-.86.02-1.29Z"/>
      <g>
        <path class="cls-3" d="m556.79,841.42c-2.83-7.54-5.46-15.16-8.16-22.75-1.42-1.22-2.85-2.43-4.27-3.65-4.56-4.25-9.12-8.5-13.68-12.75l-.13-.11c-.63-.45-1.25-.89-1.88-1.34-1.89-1.44-3.78-2.87-5.67-4.31-1.43-.46-2.86-.92-4.29-1.37l-.07.1c.03-.05.07-.1.07-.1-5.69-1.83-11.29-4.71-17.1-5.24-8-.74-16.17.28-24.26.55-.7.13-1.41.25-2.11.38-5.21,1.47-10.41,2.94-15.62,4.41-7.39,2.49-12.99,7.32-17.62,13.43-.39,1.47-.78,2.94-1.17,4.41.07,0,.13,0,.2,0-.07,0-.13,0-.2,0-2.25,3.38-4.5,6.75-6.75,10.13-.8,1.07-1.6,2.14-2.4,3.21-.38,2.22-.75,4.44-1.13,6.66-1.16,6.71-2.32,13.43-3.48,20.14,0,1.44,0,2.89,0,4.33,0,2.27.01,4.54.02,6.81.09.71.19,1.43.28,2.14,1.4,4.46,2.93,8.89,4.15,13.4,1.48,5.45,2.69,10.96,4.02,16.45.26.42.51.83.77,1.25.76,1.5,1.52,3.01,2.27,4.51,2.19,1.87,4.39,3.75,6.58,5.62,0,0,0,0,0,0,2.32,1.83,4.64,3.65,6.95,5.48.3-.03.58.03.84.16.4.34.79.68,1.19,1.02,0,0-.03-.06-.03-.06,5.19,2.05,10.39,4.1,15.58,6.14.28-.18.58-.27.91-.27h0c.08.3.11.61.08.92.38.11.75.22,1.13.34,2.25.69,4.49,1.38,6.74,2.07,1.12.09,2.24.17,3.37.26.35.23.69.46,1.04.7.11.28.18.57.21.87.34.02.66.1.97.25,3.72.43,7.43.85,11.15,1.28,6.3-.4,12.61-.81,18.91-1.21,2.53-1.92,5.06-3.85,7.58-5.77,0,0,0,0,0,0,3.03-2.98,6.06-5.96,9.09-8.95,3.72-2.58,7.44-5.16,11.17-7.73.37-.35.74-.71,1.11-1.06,1.5-1.48,3-2.96,4.49-4.44.07-.37.15-.74.22-1.1.31-.35.61-.69.92-1.04.72-.78,1.44-1.55,2.16-2.33,6.25-12.56,7.49-25.95,6.8-39.71-.09-1.76,1.07-3.59,1.65-5.39.02-1.46.05-2.91.07-4.37-.92-.77-2.3-1.37-2.67-2.35Zm-21.36-29.52c-.76-.74-1.51-1.48-2.27-2.22h0c.76.74,1.51,1.48,2.27,2.22Zm-4.5-3.33c.74.37,1.49.75,2.23,1.12-.74-.37-1.49-.75-2.23-1.12h0Zm-12.37-13.2s.03-.05.07-.1l-.07.1Zm-67.93,9.13c-1.28,1.51-2.35,3.28-3.28,5.2l-.32.2c.11-.07.21-.13.32-.2.94-1.92,2-3.69,3.28-5.2Zm20.05,115.6c.07-.1.17-.22.17-.22,0,0,0,0,0,0,0,0-.09.13-.17.22Zm56.9-114.85c-2.21-1.12-4.43-2.24-6.64-3.36,2.21,1.12,4.43,2.24,6.64,3.36,1.12,1.11,2.24,2.22,3.36,3.33-1.12-1.11-2.24-2.22-3.36-3.33Z"/>
        <path class="cls-3" d="m600.64,378.42c.04-.54.08-1.09.12-1.63-.86-3.91-1.72-7.82-2.58-11.73-.18-1.75-.36-3.49-.54-5.24-.21-.45-.41-.9-.62-1.35-.11-1.12-.22-2.24-.33-3.37-.29-1.13-.59-2.26-.88-3.39-.1-1.09-.2-2.19-.3-3.28-.27-1.12-.54-2.23-.8-3.35-.08-.74-.16-1.49-.25-2.23-1.04-3.74-2.09-7.47-3.13-11.21-.24-1.41-.47-2.83-.71-4.24l-6.11-11.52c-.03,2.66-.06,5.33-.1,7.99h0c.03-2.66.06-5.33.09-7.99-.07-.65-.15-1.29-.22-1.94-.3-.03-.6-.07-.9-.11-.45-1.34-.65-2.84-1.38-4.01-4.01-6.42-8.15-12.76-12.24-19.13-3.97-3.18-7.93-6.37-11.91-9.54-1.4-1.11-2.86-2.14-4.29-3.21,1.36,2.69,2.73,5.39,4.1,8.08,2.96,3.34,5.93,6.69,8.89,10.03.75,1.1,1.5,2.2,2.26,3.31,3.72,4.84,7.43,9.68,11.15,14.51-3.72-4.84-7.43-9.68-11.15-14.51-.75-1.1-1.5-2.2-2.26-3.31-2.97-.74-5.93-1.48-8.9-2.23,2.97.74,5.93,1.48,8.9,2.23-2.96-3.34-5.93-6.69-8.89-10.03-1.36-2.69-2.73-5.39-4.09-8.08h-.18s0-.01,0-.01c-1.53-1.4-3.06-2.8-4.6-4.21,0,0,0,0,.01,0-1.11-1.49-2.22-2.97-3.33-4.46-.38-.42-.77-.84-1.15-1.25-1.15-1-2.31-2-3.46-3.01-1.85-1.52-3.7-3.04-5.55-4.56,0,0,0,.01,0,.01-1.06-.1-2.13-.2-3.19-.3,0,0,0,0,0,0-.32-.33-.64-.66-.96-.99-.25.02-.49.04-.74.05.25-.02.49-.04.74-.05-.08-.71-.16-1.42-.24-2.13,0,0,0,0,0,0-.39-.36-.77-.73-1.16-1.09-1.1-.77-2.2-1.53-3.3-2.3-.39-.34-.78-.68-1.17-1.02,0,0,0,.02,0,.02l-3.53-3.09s-.06-.02-.06-.02c-1.75-1.59-3.49-3.18-5.24-4.76-.36-.3-.71-.59-1.07-.89-.77-.07-1.54-.14-2.31-.21-.36-.38-.71-.76-1.07-1.14-1.91-1.39-3.83-2.78-5.74-4.16-1.43-.84-2.86-1.69-4.29-2.53,0,0-.02-.02-.02-.02-1.13-.74-2.26-1.48-3.39-2.23-2.22-1.14-4.45-2.27-6.67-3.41-.35-.33-.71-.67-1.06-1-.8-.66-1.6-1.32-2.4-1.98-1.44-.82-2.89-1.64-4.33-2.45h0c-.73-.02-1.46-.03-2.19-.04-3.82-2.51-7.63-5.02-11.45-7.54-3.57-1.25-7.15-2.49-10.72-3.73h0c-3.75-1.82-7.5-3.64-11.24-5.45h0c-.4-.42-.8-.84-1.2-1.26.04.19.09.37.16.55,0,0,0,0,0,0-1.88-.15-3.75-.3-5.63-.45,0,0,.09-.08.09-.08-.8-1.08-1.6-2.16-2.39-3.25-.75-.32-1.51-.65-2.26-.97-.7-.14-1.41-.27-2.11-.41-2.99-1.05-5.98-2.09-8.97-3.14-.75-.11-1.5-.22-2.26-.33-.33-.23-.65-.46-.98-.68-.39-.06-.79-.12-1.19-.19-4.83-1.07-9.63-2.3-14.49-3.19-10.44-1.9-20.91-3.63-31.37-5.43-7.79-.14-15.58-.28-23.37-.42-.36.15-.72.3-1.08.46-2.57-.12-5.13-.25-7.7-.37-.76.1-1.52.21-2.28.31-1.12,0-2.24,0-3.36.01-1.11.01-2.21.03-3.32.04-11.9.28-23.8.56-35.7.85-7.45.22-14.9.45-22.35.67-.55-.05-1.1-.11-1.66-.17-3.82.73-7.63,1.46-11.45,2.18-3.02.66-6.05,1.32-9.07,1.99-.78.24-1.55.47-2.33.71-.71.12-1.42.23-2.13.35-4.09,1.49-8.17,2.99-12.26,4.48h0c-.75.36-1.49.72-2.24,1.08-.31.14-.63.2-.97.17l-.02.02c-2.29,1.39-4.57,2.78-6.86,4.18l-.07.1c.06.33.05.65-.04.98h0c-.32.04-.63,0-.93-.12-.38.09-.76.18-1.13.27-3.34,2.23-6.69,4.46-10.04,6.68-.39.36-.78.72-1.17,1.07-1.85,1.08-3.69,2.16-5.54,3.25-2.26,1.89-4.52,3.78-6.78,5.66-3.28,3.38-6.56,6.76-9.84,10.14,0,0,.01,0,.01,0-2.31,2.87-4.63,5.75-6.94,8.62,0,0,.05.06.08.1-.05-.05-.08-.1-.08-.1-.69.06-1.38.13-2.07.19-3.23,3.58-6.46,7.15-9.7,10.73-.03.55-.07,1.09-.1,1.64,0,0,0,0,0,0-.84,1.41-1.69,2.81-2.53,4.22-2.16,1.61-4.32,3.22-6.47,4.82-2.96,4.03-5.91,8.06-8.87,12.09-.11.3-.19.6-.24.92-2.19,2.31-4.38,4.62-6.56,6.92-.34.36-.68.72-1.02,1.09-2.27,4.04-4.54,8.08-6.8,12.12-.73,1.12-1.45,2.25-2.18,3.37,0,.42,0,.83,0,1.25-.41.71-.82,1.42-1.23,2.12.07.4.14.79.21,1.19,0,0,0,0,0,0-1.55,2.93-3.1,5.85-4.65,8.78-.74,0-1.48-.01-2.23-.02-.31.37-.62.73-.93,1.1-.67,2.76-1.16,5.58-2.06,8.26-.63,1.87-1.83,3.54-2.78,5.3-.29.72-.58,1.44-.87,2.16-1.1,2.62-2.2,5.25-3.29,7.87-1.44,1.86-2.88,3.73-4.32,5.59-.39,1.43-.79,2.86-1.18,4.29.18,1.36.87,2.9.46,4.05-3.71,10.43-7.61,20.79-11.5,31.16-.24.63-.89,1.1-1.34,1.65-.11,1.13-.21,2.26-.32,3.39,0,0,.51-.07.51-.07-.07.71-.14,1.42-.21,2.12,0,.07,0,.14,0,.22,0-.07,0-.14,0-.22-1.17,3.25-2.57,6.45-3.46,9.78-2.32,8.64-4.41,17.34-6.59,26.01-.12,1.08-.23,2.16-.35,3.25-.27,1.14-.54,2.27-.81,3.41-.07,1.1-.14,2.2-.2,3.3.14.79.28,1.57.42,2.36,0,0,0,0,0,0-.07.69-.14,1.39-.21,2.08-.7.04-1.4.08-2.1.12-.72,13.29,1.2,26.13,7.02,38.2,2.68,5.55,5.71,10.92,8.58,16.37.38,1.1.76,2.21,1.14,3.31.38.34.76.69,1.14,1.03.69.04,1.37.08,2.06.12h0c2.81,3.63,5.89,7.1,8.34,10.97,1.48,2.33,1.97,5.28,2.9,7.95.36.43.71.86,1.07,1.29,1.79,2.58,3.58,5.15,5.36,7.73,0,0,.25-.1.25-.1,0,0,0,0,0,0,.03.74.06,1.48.09,2.22,1.02,1.69,2,3.4,3.06,5.06,2.25,3.55,4.55,7.07,6.82,10.6h0s0,0,0,0c.38,2.22.75,4.43,1.13,6.65,1.48,3.33,2.95,6.66,4.43,9.99.07.33.12.66.14,1,1.08.05,2.16.1,3.24.15h0s0,0,0,0h0s0,0,0,0c3,5.92,5.99,11.85,8.98,17.77.35.02.7.04,1.04.06.02.72.04,1.43.06,2.15,2.21,2.62,4.42,5.24,6.64,7.87h0c.03.73.05,1.46.08,2.19.36.37.71.73,1.07,1.1.74,1.12,1.48,2.25,2.22,3.37,0,0,0,0,0,0,2.59,2.24,5.18,4.47,7.77,6.71,0,0,0,0,0,0h0s0,0,0,0h0c.04.7.08,1.41.13,2.11,1.74,1.27,3.52,2.49,5.22,3.81,2.69,2.09,5.34,4.24,8.01,6.37,0,0,0,0,0,0,5.99,4.46,11.99,8.91,17.97,13.39,1.88,1.41,3.69,2.9,5.53,4.36.35-.01.69,0,1.03.05,10.86,5.27,21.74,10.53,32.57,15.86.52.25.68,1.23,1,1.86,1.44.36,2.87.72,4.3,1.08,4.85,1.22,9.69,2.46,14.54,3.67,13.2,3.28,26.42,6.51,39.6,9.86,1.08.27,1.97,1.3,2.95,1.98.3.01.59.08.86.2,2.98.41,5.95.81,8.93,1.22,4.09-.07,8.18-.14,12.27-.21,0,0,0,0,0,0,.72.13,1.45.26,2.17.39,1.11-.09,2.21-.18,3.32-.27,7.06-.02,14.12-.04,21.18-.06,0-7.85,0-15.69.01-23.54-.01,7.85,0,15.69-.01,23.54-7.06.02-14.12.04-21.18.06,8.07.74,16.14,1.47,24.21,2.21-.31-.75-.62-1.5-.93-2.25,0-15.96.01-31.91.02-47.87,0,0,0,0,0,0,.17-.29.25-.61.23-.95,0-.48,0-.96,0-1.45.01-.34-.06-.67-.21-.98,0-8.54-.01-17.07-.02-25.61.1-.35.16-.71.18-1.08,0-.39,0-.78,0-1.17-.03-.37-.09-.73-.2-1.09.01-.75.03-1.49.04-2.24.13-.32.19-.65.18-.99,0-.44,0-.88,0-1.32,0-.35-.07-.7-.21-1.02-1.04-1.49-2.08-2.98-3.13-4.46h0c1.04,1.49,2.08,2.98,3.13,4.46.13-12.63.26-25.25.39-37.88-.14-1.48-.29-2.95-.43-4.43,0-.77-.01-1.54-.02-2.3.07-4.46.15-8.91.22-13.37-.04-.75-.08-1.49-.13-2.24-.08-.9-.18-1.79-.28-2.69.1.9.2,1.79.28,2.69.06-2.03,0-4.08.19-6.1.37-4.13.86-8.25,1.31-12.37-.08-.36-.09-.72-.04-1.09.37-4.24.74-8.47,1.11-12.71.26-9.29.51-18.59.77-27.88.13-.31.19-.63.2-.96,0-.47.01-.93.02-1.4.02-.29.04-.59.06-.88,0,0,0,0,0,0,.75-9.07,1.73-18.12,2.15-27.21.2-4.33-1.21-8.77-.8-13.05.2-2.11,2.87-3.99,4.42-5.98,0,0,.32-.34.32-.34,2.03-.23,4.07-.47,6.1-.7,7.72,1.28,5.92,7.7,6.83,12.66-.15.39-.3.78-.45,1.17.11.69.21,1.38.32,2.07.38,4.47.77,8.95,1.15,13.42-.54,2.2-1.07,4.4-1.61,6.6,0,0,0,0,0,0l-5.04,20.24c-.05,1.85-.1,3.71-.14,5.56.02.7.04,1.4.05,2.1-.83,4.86-1.66,9.71-2.49,14.57,0,2.22,0,4.44,0,6.66-.34,8.18-.68,16.35-1.02,24.53.04,11.51.12,23.02.07,34.53,0,1.53-.67,3.05-1.03,4.58,0,2.16-.02,4.32-.03,6.48.39,1.51,1.11,3.02,1.12,4.53.07,10.21-.07,20.42,0,30.63.01,1.71.64,3.42.99,5.13.12.76.23,1.51.35,2.27-.51,1.45-1.02,2.89-1.53,4.34-.26,3.71-.51,7.41-.77,11.12.31,4.73,1.05,9.48.84,14.18-.44,9.75-1.41,19.48-2.07,29.23-.05.74.65,1.53,1.01,2.3,1.89.05,3.78.09,5.66.14,1.08.03,2.15.07,3.23.1.78-.02,1.57-.03,2.35-.05,1.47-.02,2.94-.04,4.41-.06.75-.41,1.49-.82,2.24-1.24h0c5.92-.43,11.85-.86,17.77-1.3,1.14.1,2.28.21,3.43.31.72-.05,1.45-.11,2.17-.17,13.24-4.58,26.47-9.15,39.71-13.73l.15-.07c.1-.57.19-1.15.29-1.72.27,0,.54-.03.81-.08.06.74.11,1.48.17,2.23.03,1.64-.14,3.32.13,4.93,1.55,9.2,2.06,18.77,9.1,26.06,6.65,3.29,13.01,7.6,20.02,9.63,10.67,3.09,21.66,4.02,29.39-6.98.26-.36,1.02-.38,1.54-.55.76-.63,1.51-1.26,2.27-1.89,5.08-4.26,8.65-9.63,9.64-16.12.77-5.08.21-10.34.45-15.52.5-10.53-3.94-18.53-12.39-24.44-4.71-3.3-9.61-6.32-14.42-9.47.77-.4,1.54-.79,2.31-1.19,1.48-1.15,2.96-2.31,4.44-3.46.41-.34.83-.69,1.24-1.03,2.22-1.84,4.43-3.68,6.65-5.52,0,0,.04-.04.04-.04,3-2.99,5.99-5.98,8.99-8.97.31-.32.62-.65.92-.97.83-.76,1.65-1.52,2.48-2.29.63-.08,1.26-.15,1.9-.23,9.7-9.19,19.41-18.37,29.11-27.55l-.19-.34s0,0,0,0c2.31-2.55,4.62-5.11,6.93-7.66-.18.07-.38.1-.57.11l-3.96-.03c-.37.72-.75,1.44-1.12,2.17-.75.4-1.51.8-2.26,1.2-.37.72-.74,1.43-1.11,2.15h0c.37-.72.74-1.43,1.11-2.15.75-.4,1.51-.8,2.26-1.2.37-.72.75-1.44,1.12-2.17,1.32.01,2.64.02,3.96.03.92-1.45,1.84-2.89,2.76-4.34-.02-1.15-.04-2.29-.07-3.44-1.86,1.08-3.71,2.17-5.57,3.26-.38,1.48-.76,2.97-1.14,4.45.38-1.48.76-2.97,1.14-4.45,1.86-1.09,3.71-2.17,5.57-3.26,1.11-2.24,2.23-4.48,3.34-6.72-1.11,2.24-2.23,4.48-3.34,6.72.02,1.15.04,2.29.07,3.44.36-.03.73-.06,1.09-.07.33-.42.66-.85.99-1.27,1.88-2.58,3.76-5.16,5.64-7.74.32-.41.64-.81.96-1.22,3.06-5.56,6.12-11.11,9.18-16.67,2.6-7.41,5.2-14.81,7.81-22.22.67-3.74,1.34-7.48,2.01-11.22.08-.32.11-.65.09-.99-.21-1.07-.43-2.14-.64-3.21.21,1.07.43,2.14.64,3.21.38-.03.75-.06,1.13-.09.09-.72.18-1.43.27-2.15-.08-1.13-.16-2.26-.25-3.39,1.39-11.92,2.78-23.84,4.17-35.76.05-.72.11-1.44.16-2.16.8-4.94,1.56-9.89,2.41-14.83.18-1.05.63-2.05.96-3.08.02-12.59.03-25.19.05-37.78-.53-6.72-1.06-13.44-1.59-20.16Zm-1.75,20.15l.02,4.44c.12,3.72.24,7.45.35,11.17-.11-3.72-.23-7.45-.35-11.17,0-1.48-.01-2.96-.02-4.44-.09-1.59-.17-3.18-.25-4.77.08,1.59.16,3.18.25,4.77Zm-4.67-31.25c.06,0,.11-.02.18-.02-.07,0-.12.02-.18.02Zm-2.27.8c.25-.24.57-.4.92-.53-.35.13-.67.3-.92.53Zm5.84,58.36c.23-.14.53-.28.82-.42-.29.14-.59.28-.82.42h0Zm-8.93-89.19c-.74-2.97-1.48-5.95-2.22-8.92-.21-.42-.41-.83-.62-1.25.21.42.41.83.62,1.25.74,2.97,1.48,5.95,2.22,8.92Zm-211.71,154.87c.29,0,.58-.01.87-.01-.28,0-.57,0-.87.01h0Zm5.55-37.88c-.35-.38-.71-.76-1.06-1.13.35.38.71.76,1.06,1.13,0,.39.02.77.03,1.16,0,.34,0,.67,0,1.01-.37,1.88-.74,3.76-1.11,5.64.37-1.88.74-3.76,1.11-5.64,0-.34,0-.67,0-1.01,0-.39-.02-.77-.03-1.16Zm-28.28,16.37c1.59-4.16.41-9.38-.39-14.12.29,0,.58,0,.85,0-.04,4.75,1.13,9.97-.46,14.13Zm-195.04-181.63c.24-.28.6-.48,1.06-.6.46-.12,1.03-.16,1.69-.14-.07-.53-.14-1.06-.21-1.58-.1-.79-.18-1.57-.19-2.32.01.75.09,1.53.19,2.32.06.53.14,1.05.21,1.58-.66-.02-1.22.02-1.69.14-.46.12-.82.31-1.06.6Zm121.14-89.3h18.49c-6.58,0-12.68,0-18.74.27-.02.09-.03.18-.05.27-1.41.21-2.87.28-4.24.67,1.37-.39,2.83-.46,4.28-.94.07-.09.17-.18.25-.27Zm225.49,401.35c.65.08,1.31.21,1.97.4-.66-.19-1.32-.32-1.97-.4Zm-9.1-343.13c.03.07.05.16.08.24-.02-.09-.05-.17-.08-.24h0Zm1.24.55c-.11-.3-.16-.76-.37-.85.21.09.25.55.37.85,0,0,0,0,0,0Zm-107.63,73.24c-.08.13-.16.27-.23.4.08-.13.15-.27.23-.4h0Zm-36.5,124.8c.26,0,.52-.01.78-.02-.36,0-.68.02-.78.02,0,0,0,0,0,0Zm-4.95-98.09c1.91-.24,3.81-.6,5.7-1,1.89-.4,3.78-.83,5.67-1.21,1.49-.38,2.99-.75,4.48-1.13-1.49.38-2.99.75-4.48,1.13-1.89.38-3.78.81-5.67,1.21-1.89.4-3.79.76-5.7,1Zm-43.1,5.3c-.64-.71-.8-2.76-1.23-4.05-5.4.23-10.8.54-16.2.6,5.4-.07,10.8-.38,16.2-.61.43,1.29.59,3.34,1.23,4.05Zm81.79-20.44c.08.22.14.42.15.55-.01-.13-.07-.33-.15-.55Zm-11.72-51.26c1.41,1.96,2.24,4.98,3.48,7.24,4.29-.08,6.99,2.42,9.52,5.09-2.53-2.67-5.24-5.17-9.53-5.09h0c-1.24-2.26-2.07-5.28-3.48-7.24Zm-160.45,4.03c1.52-2.95,3.03-5.91,4.55-8.86h0c2.57-.65,5.13-1.31,7.7-1.96-2.57.65-5.13,1.31-7.7,1.96-1.52,2.95-3.03,5.91-4.55,8.86Zm-5.5,1.12c-2.77-.54-5.53-1.17-8.3-1.67,2.78.5,5.53,1.13,8.3,1.67h0Zm-17.85,17.86s-.02-.02-.02-.02c-2.03,0-4.07,0-6.1,0,2.03,0,4.07,0,6.1,0,.04-.44.08-.88.13-1.31-.05.43-.1.86-.13,1.31,0,0,.02.02.02.02h0Zm-17.87-22.35h0c-1.47,0-2.94-.02-4.41-.02.02-.19.03-.38.05-.58-.02.19-.03.38-.05.58,1.47,0,2.94.02,4.41.03Zm18.74,18.11c-.24.51-.42,1.07-.55,1.67.13-.6.3-1.16.55-1.67Zm-16.5-19.22h0c2.59-2.24,5.17-4.48,7.76-6.72,0-.09,0-.17,0-.26,0,.09,0,.17,0,.26-2.59,2.24-5.17,4.48-7.76,6.72Zm53.49-40.02c2.96-.41,5.92-.82,8.88-1.23-2.96.41-5.92.82-8.88,1.23-.75.73-1.49,1.45-2.24,2.18h0s0,0,0,0c0,0,0,0,0,0,.75-.73,1.49-1.45,2.24-2.18Zm111.41,23.36c2.57-.72,5.14-1.44,7.71-2.16-2.57.72-5.14,1.44-7.71,2.16h0Zm-1.11-21.17c-.56-.16-1.11-.32-1.67-.48.56.16,1.11.32,1.67.48,4.09,2.21,8.19,4.43,12.28,6.64l-12.28-6.64Zm-23.8-.11c-1.37,2.87-3.65,3.18-5.95,2.85,2.3.33,4.58.03,5.95-2.85Zm.42-1.05h0c-.06.19-.14.34-.21.51.07-.17.14-.33.21-.51Zm-78.75,25.68c.49.02.99.06,1.46.05-.47,0-.97-.02-1.46-.05-.33-.02-.65-.03-.96-.02.31,0,.64,0,.96.02Zm25.68-10.91c.25.06.49.15.7.26s.4.26.56.46c-.16-.19-.35-.34-.56-.46-.21-.12-.45-.2-.7-.26Zm-22.29-18.11c.07,0,.13,0,.13,0h-.13Zm-31.72,24.98c.14-2.27.17-4.55.16-6.84,0,2.28-.02,4.56-.16,6.84Zm3.45,21.86c-.33-1.27-.6-2.31-.76-3.16-.11-.57-.17-1.06-.17-1.48,0,.43.06.92.17,1.48.16.85.43,1.89.76,3.16h0Zm33.42-17.91c.11-2.49.21-4.98.32-7.47-.11,2.49-.21,4.98-.32,7.47-2.2.04-4.41.07-6.61.11l6.61-.11Zm12.27-5.5c.74,0,1.48,0,2.22,0-.74,0-1.48,0-2.22,0-.56,0-1.11,0-1.67,0,.56,0,1.11,0,1.67,0Zm13.37-4.43c-2.6-1.86-5.2-3.72-7.8-5.59,2.6,1.86,5.2,3.72,7.8,5.59h0Zm24.54,1.01c.73-.02,1.46-.03,2.19-.05-.73.02-1.46.03-2.19.05-1.31-.26-2.61-.67-3.92-.87,1.31.2,2.61.61,3.92.87Zm37.85,4.52c1.45-1.57,2.91-3.15,4.36-4.72-1.45,1.57-2.91,3.15-4.36,4.72-2.22-.36-4.45-.71-6.67-1.07,2.22.36,4.45.71,6.67,1.07Zm17.82,5.44c0,.85,0,1.63,0,2.4h0v-2.4Zm67.98,22.45c.37,0,.74,0,1.11-.01-.37,0-.74,0-1.11.01-.76.36-1.51.71-2.26,1.07.75-.36,1.51-.71,2.26-1.07Zm-141.16-96.95c.05-.29.1-.57.14-.83-.05.26-.09.54-.14.83Zm38.66,26.74c-.37-1.49-.74-2.97-1.11-4.46.37,1.49.74,2.97,1.11,4.46.37.37.75.75,1.12,1.12-.37-.37-.75-.75-1.12-1.12Zm91.26,35.01c-.68.63-1.01,1.71-1.03,3.21.02-1.51.36-2.58,1.03-3.21Zm8.18,9.52s-.1.01-.15.02c.05,0,.1-.01.15-.02Zm-31-30.01c-.44.36-.88.66-1.32.91.45-.25.89-.55,1.32-.91Zm-64.24-17.05c-.19.29-.29.65-.31,1.07.02-.42.12-.78.31-1.07Zm.51-.49c.21-.13.46-.24.76-.31-.3.07-.55.17-.76.31Zm28.72,9.7c1.2-1.49,2.68-2.31,4.09-2.41-1.4.1-2.89.92-4.09,2.41-.74,0-1.48-.01-2.23-.02.74,0,1.48.01,2.23.02Zm6.09-2.01c-.31-.16-.64-.27-.97-.34.34.07.66.18.97.34Zm26.09,11.36c.28-.07.57-.16.84-.28-.28.12-.56.2-.84.28Zm15.73,14.07c.36.02.73.03,1.09.05,1.87,2.95,3.74,5.89,5.61,8.83-1.87-2.94-3.74-5.89-5.61-8.83-.36-.02-.73-.03-1.09-.05-.38-.37-.76-.74-1.14-1.12.38.37.76.74,1.14,1.12Zm28.95,25.62h0c.55.81,1.23,1.59,1.82,2.39-.6-.8-1.28-1.58-1.82-2.39Zm-10.71,15.57c.07,0,.13,0,.13,0h-.13Zm-23.54-12.52c.64-.34,1.31-.63,1.98-.84h0c-.68.21-1.34.49-1.98.84Zm-.94.55c.13-.08.26-.15.39-.23-.13.08-.27.15-.39.23Zm-4.84,5.38c.07-.16.14-.32.23-.49-.08.16-.16.33-.23.49Zm2.58,10.22c-.42-.43-.84-.88-1.26-1.33.42.45.84.89,1.26,1.33Zm44.32-14.92c1.43-1.05,2.86-2.11,4.29-3.16.06-.83.08-1.66.12-2.49-.04.83-.07,1.66-.12,2.49l-4.29,3.16Zm-204.05-61.1c-.69.05-1.27.21-1.75.48.48-.26,1.06-.42,1.75-.48Zm-2.38.95c-.74.74-1.07,1.9-.97,3.49,2.23-.73,4.46-1.47,6.69-2.2.65-.08,1.31-.17,1.96-.25-.65.08-1.31.17-1.96.25-2.23.73-4.46,1.47-6.69,2.2-.74,0-1.48,0-2.22,0h0c.74,0,1.48,0,2.22,0-.1-1.59.22-2.75.97-3.49Zm-18.76,11.32s0,0,0,0c-1.39-1.6-.95-4.34.59-6.36-1.54,2.02-1.98,4.77-.59,6.36Zm-23.54,17.69l.27.28c-.09-.09-.27-.28-.27-.28h0Zm-3.11,2.47c-.1-.1-.19-.19-.19-.19l.19.19Zm-2.25,3.23c.59-.52,1.18-1.04,1.77-1.55l-.04-.03c.24-.48.48-.96.71-1.45h0c1.08-.78,2.15-1.56,3.23-2.33h0c1.7-.92,3.4-1.83,5.1-2.75l.03-.05c6.27-4.03,12.53-8.08,18.83-12.08,1.69-1.07,3.48-1.97,5.22-2.95-.51-.44-1.02-.88-1.53-1.32.51.44,1.02.88,1.53,1.32.62,0,1.24-.01,1.87-.02.28-.2.59-.27.93-.22,1.95-1.32,3.75-3.39,5.89-3.84,12.38-2.61,24.17-7.72,37.62-5.38,10.99,1.91,22.46,1.12,33.71,1.53,6.99.26,13.98.53,20.97.79,4.84.89,9.68,1.78,14.53,2.66,3.72.65,7.45,1.29,11.17,1.94,4.43,1.1,8.86,2.19,13.29,3.29.36-.69.71-1.39,1.07-2.08-.36.69-.71,1.39-1.07,2.08,10.07,4.43,20.13,8.87,30.2,13.3.72.37,1.45.74,2.17,1.11.38.42.75.84,1.13,1.26,5.5,4.53,11.01,9.06,16.51,13.59h0s0,0,0,0h0c.76.37,1.52.74,2.29,1.11l4.54,3.4c.28.29.56.58.84.87.12.36.23.71.35,1.07,3.27,3.02,6.54,6.03,9.81,9.05,0,3.26,0,6.53,0,9.79.04.43.08.87.13,1.3.4.06.78.08,1.13.09-.35,0-.73-.03-1.13-.09h0c-.04-.43-.08-.87-.13-1.3-6.28,2.77-11.72,1.19-16.61-3.22-.42-.31-.83-.61-1.25-.92v.02c-.74-.75-1.48-1.5-2.21-2.25l.03.04c-2.23-1.9-4.46-3.79-6.68-5.69-.35-.35-.7-.7-1.05-1.04-1.05-.45-2.1-.91-3.15-1.36-1.52-.71-3.03-1.43-4.55-2.14,0,0-.18.18-.18.18h0l.18-.18c-1.95-3.24-2.89-7.48-7.74-7.87,0,0-.22.23-.22.23h0s.22-.23.22-.23c-4.99-4.37-9.99-8.73-14.98-13.1-1.32-.09-2.64-.19-3.96-.28-.38-.34-.76-.67-1.14-1.01h0s0,0,0,0c0,0,0,0,0,0h0c-2.62-1.16-5.24-2.33-7.86-3.49-4.09-1.02-8.18-2.03-12.27-3.05-1.11,0-2.22.02-3.34.03,0,0,0,0,0,0-.72-.35-1.44-.7-2.16-1.05-2.6.43-5.18,1-7.79,1.36,2.6-.36,5.19-.93,7.78-1.36-2.18-.28-4.36-.63-6.55-.82-10.09-.86-20.18-1.67-30.27-2.5,0,0,0,0,0,0-.73-.12-1.47-.24-2.2-.37,0,0,0,0,0,0-5.59-.59-11.17-1.18-16.76-1.77-.71-.17-1.42-.34-2.13-.51-4.74-.29-9.49-.86-14.23-.81-5.46.06-10.95,1.27-16.36.91-8.52-.57-15.53,2.91-22.73,6.53-5.15,2.59-10.58,4.65-15.89,6.94-.12.31-.24.62-.38.93.88.09,1.76.18,2.64.27,2.59-.04,5.17-.08,7.76-.13l-7.76.13c0,2.25.04,4.51.05,6.76,0-2.25-.05-4.51-.05-6.76-.88-.09-1.76-.18-2.65-.27-.24-.03-.48-.05-.72-.08l-.11.2c-2.12,2.69-4.23,5.39-6.35,8.08.3.29.61.59.91.88h0c-.3-.29-.61-.59-.91-.88-4.16,2.95-8.33,5.89-12.49,8.84-1.11,2.17-2.22,4.35-3.33,6.52.75.74,1.5,1.47,2.24,2.2-.75-.73-1.5-1.46-2.24-2.2h0c1.11-2.17,2.22-4.35,3.33-6.52-1.09.35-2.17.69-3.26,1.04-3.15,3.24-6.21,6.57-9.49,9.68-1.41,1.34-3.26,2.23-4.91,3.32-.06-.35,0-.89-.2-1.03-6.82-4.56-6.93-4.95-3.17-11.96h0c2.59-2.19,5.17-4.37,7.76-6.56,2.24-1.93,4.47-3.86,6.71-5.79Zm-14.51,12.32s0,0-.01,0h.01Zm35.58,63.41c.95,1.9,1.91,3.81,2.87,5.73-.96-1.92-1.92-3.82-2.87-5.73,0,0,0,0,0,0Zm-3.35-2.21c-.36-.02-.72-.04-1.08-.04-1.49-2.97-2.98-5.93-4.46-8.9-.37-.38-.73-.77-1.1-1.15.37.38.73.77,1.1,1.15,1.49,2.97,2.98,5.93,4.46,8.9.36,0,.72.01,1.08.04.39.37.78.74,1.17,1.11-.39-.37-.78-.74-1.17-1.11Zm5.67-.75c-5.24-2.05-7.67-4.8-8.09-10-1.39-2.76-2.78-5.51-4.17-8.27h0c.02-.66.03-1.31.05-1.97,1.51-1.47,3.01-2.94,4.52-4.41-.36.07-.71.14-1.07.21l1.07-.21s.1.05.1.05c.27-1.94.55-3.88.82-5.83h0c-.27,1.94-.55,3.89-.82,5.83,6.69-5.99,13.38-11.97,20.08-17.96,0,0,0,0,0,0,.61-.09,1.21-.17,1.82-.26,0,0-.02.04-.02.04,3.51-2.78,6.72-6.14,10.61-8.23,6.68-3.58,13.79-6.36,20.71-9.48h0c3.33-.77,6.66-1.54,9.99-2.31,11.81-4.81,24.13-6.36,36.78-5.73,3.33.44,6.68.76,9.98,1.35,3.08.55,6.11,1.38,9.16,2.08,1.43-.09,2.85-.17,4.28-.26,1.08.17,2.16.34,3.23.51,1.83,1.03,3.76,3.07,5.48,2.9,7.31-.7,12.84,3.63,19.1,5.89,1.5,1.16,3.01,2.32,4.51,3.48,5.29-.57,10.01-.05,14.21,4.08,3.64,3.58,8.16,6.26,12.29,9.34,1.63,1.76,3.25,3.52,4.88,5.28,1.82,1.36,3.63,2.72,5.35,4-.73,1.82-1.37,3.4-2,4.97-.01.38-.02.77-.03,1.15.47,2.22.6,4.59,1.48,6.63,2.09,4.83-2.28,6.84-3.97,10.02-1.06,1.17-2.12,2.33-3.18,3.5l.04-.04c-3.73,3.74-7.46,7.49-11.2,11.23-1.16,5.27-6.01,3.55-9.24,4.93-7.69,3.29-15.69,4.25-23.99,3.87-2.66-.12-5.36.82-8.05,1.28-1.12.04-2.23.07-3.35.11-1.49.35-2.97.7-4.46,1.05-1.49.65-2.97,1.31-4.46,1.96h0c1.49-.65,2.97-1.31,4.46-1.96-11.97.39-23.93.77-35.9,1.16-.58,0-1.17,0-1.75,0,0,0,0,0,0,0-5.65-.42-11.3-.85-16.95-1.27-1.14.27-2.27.54-3.41.81,1.14.07,2.29.14,3.43.21.66,0,1.32,0,1.98,0-.66,0-1.32,0-1.98,0-1.14-.07-2.29-.14-3.43-.21-.29.07-.58.1-.87.09-1.72.02-3.43.03-5.15.05,1.72-.02,3.43-.03,5.15-.05-2.28-.31-4.57-.62-6.85-.93-1.49-.35-2.99-.71-4.48-1.06-.34-.11-.69-.19-1.05-.22-2.14.17-4.29.44-6.43.64,2.14-.2,4.29-.47,6.43-.64-5.83-1.09-11.67-2.12-17.47-3.31-3.12-.64-6.18-1.55-9.26-2.34-.37-.34-.74-.68-1.1-1.02-.82.11-1.61.13-2.38.09.77.04,1.56.02,2.38-.09-5.89-3.69-11.42-8.29-17.78-10.79Zm12.84,10.49c-.85-.21-1.67-.49-2.47-.81.8.33,1.62.61,2.47.81Zm167.27,90.55h-.28s.14,0,.28,0Zm.28,0s0,0,.01,0c0,0-.01,0-.01,0h0Zm6.55-108.03c1.36-.02,2.11-.44,2.55-1.07-.44.63-1.19,1.05-2.55,1.07Zm64.77,304.12c1.4.02,2.8.03,4.21.05-1.4-.02-2.8-.03-4.21-.05-1.83-.27-3.66-.62-5.49-.87,1.83.24,3.66.59,5.49.87Zm4.44-5.57c.19-.3.37-.65.55-1.01s.35-.73.53-1.07c-.18.34-.35.71-.53,1.07-.18.36-.35.71-.55,1.01.42.76.84,1.52,1.25,2.28h0c-.42-.76-.84-1.52-1.25-2.28Zm51.75-26.56c.74.61,1.34,1.29,1.74,2.03h0c-.4-.74-1-1.42-1.74-2.03Zm26.06-25.96c.8.05,1.61.1,2.42.16.38-.46.71-1.02,1.03-1.59-.32.57-.65,1.13-1.03,1.59-.81-.05-1.62-.11-2.42-.16Zm5.56-4.55c-.44.37-.8.86-1.14,1.41.34-.54.7-1.04,1.14-1.41Zm5.78-294.99c-.39-1.12-.79-2.23-1.18-3.35.39,1.12.79,2.23,1.18,3.35h0Zm-12.26-4.47c-.74-.37-1.49-.74-2.23-1.11.74.37,1.49.74,2.23,1.11,1.86-.74,3.71-1.48,5.57-2.23-1.86.74-3.71,1.48-5.57,2.23Zm-4.46-6.69h0c1.11-.37,2.22-.74,3.32-1.11-1.11.37-2.22.74-3.32,1.11Zm-9.96-11.18c2.21,1.12,4.42,2.25,6.63,3.37h0c-2.21-1.12-4.42-2.25-6.63-3.37-.39,1.5-.79,3-1.18,4.5h0c.39-1.5.78-3,1.18-4.5-2.62-2.22-5.24-4.43-7.86-6.65,2.62,2.21,5.24,4.43,7.86,6.64Zm-24.56-17.82c1.86,1.49,3.72,2.99,5.58,4.48-1.86-1.49-3.72-2.99-5.58-4.48-1.12-.74-2.24-1.47-3.35-2.2h0c-.74-.55-1.49-1.11-2.23-1.66.74.55,1.49,1.11,2.23,1.66,1.12.73,2.24,1.47,3.35,2.2Zm-14.5-8.89c-.73-1.5-1.46-2.99-2.19-4.49h0c.73,1.5,1.46,2.99,2.19,4.49Zm-9.98-5.59h0c-.39-.36-.77-.73-1.16-1.09-.13-.09-.26-.17-.39-.26.13.09.26.17.39.26.39.36.77.73,1.16,1.09Zm-14.64-9.89l-.02.02h0s.01-.02.02-.02Zm-6.58-.13c1.11.02,2.23.03,3.34.05-1.11-.02-2.22-.03-3.34-.05-.35-.02-.7-.03-1.05-.01-.07-.1-.14-.21-.2-.31l.2.31c.35-.01.7,0,1.05.01Zm-24.51-10.02c.02.22.03.42.03.61,0-.19,0-.4-.03-.61h0Zm-4.45-1.13c.75.37,1.5.75,2.25,1.12-.75-.37-1.5-.75-2.25-1.12,0-.36-.01-.73-.03-1.09.02.36.03.73.03,1.09Zm-24.52-6.66c4.46,1.11,8.92,2.22,13.38,3.34,1.05.12,2.09.24,3.14.36-1.05-.12-2.09-.24-3.14-.36-4.46-1.11-8.92-2.22-13.38-3.34-3.71-.37-7.43-.74-11.14-1.11,3.71.37,7.43.74,11.14,1.11Zm-24.51-2.24c.83,0,1.67.01,2.5.02-.83,0-1.67-.01-2.5-.02-4.47-.56-8.94-1.05-13.41-1.65,4.46.6,8.94,1.09,13.41,1.65Zm-66.86.01c1.86,0,3.71,0,5.57,0,1.49,0,2.97,0,4.46,0,2.6-.37,5.2-.74,7.8-1.11-2.6.37-5.2.74-7.8,1.11-1.49,0-2.97,0-4.46,0-1.86,0-3.71,0-5.57,0-.74,0-1.49,0-2.23,0,.74,0,1.49,0,2.23,0Zm-30.1,1.09c1.12-.36,2.24-.71,3.36-1.07-1.12.36-2.24.71-3.36,1.07-1.85.01-3.7.02-5.55.03,1.85-.01,3.7-.02,5.55-.03Zm-24.5,4.48c2.6-1.1,5.2-2.2,7.81-3.31-2.6,1.1-5.2,2.2-7.81,3.31-2.61.73-5.21,1.46-7.82,2.2,2.61-.73,5.21-1.46,7.82-2.2Zm-13.42,5.54c-1.85.75-3.7,1.51-5.55,2.26-.28,0-.56,0-.84.01.28,0,.56,0,.84-.01,1.85-.75,3.7-1.51,5.55-2.26Zm-12.07,2.36h0s-.08-.07-.16-.14c.08.07.16.14.16.14Zm-13.8,11.28c-.45.1-.86.22-1.25.36.39-.15.8-.27,1.25-.36Zm-1.8.61c-1.95.96-2.92,2.76-2.44,5.8-.8.02-1.6.04-2.4.05.8-.02,1.6-.04,2.4-.05-.48-3.04.49-4.84,2.44-5.8Zm-26.78,23.76h0s-.06-.07-.12-.14c.06.07.12.14.12.14Zm-30.62,42.36c-.21.7-.46,1.4-.65,2.1.21.53.45,1.05.68,1.58-.22-.53-.46-1.05-.68-1.58.19-.7.44-1.4.65-2.1Zm-11.82,18.79c.74-1.1,1.49-2.2,2.23-3.3,1.48-3.34,2.97-6.69,4.45-10.03,1.12-1.48,2.24-2.97,3.36-4.45.38.37.75.74,1.13,1.11-.38-.37-.75-.74-1.13-1.11-1.12,1.48-2.24,2.97-3.36,4.45-1.48,3.34-2.97,6.69-4.45,10.03-.74,1.1-1.49,2.2-2.23,3.3-1.15.25-2.29.5-3.44.76,1.15-.25,2.29-.5,3.44-.76Zm-11.13,18.98c.36-.39.73-.78,1.09-1.17-.36.39-.73.78-1.09,1.17-2.23,5.19-4.46,10.39-6.69,15.58,2.23-5.19,4.46-10.39,6.69-15.58Zm-9.46,17.7c-.33.4-.61.83-.84,1.28.23-.45.5-.88.84-1.28Zm-1.14,1.97c-.81,2.1-.73,4.56-.58,7.04h0c-.15-2.49-.24-4.95.58-7.04Zm-.57,7.04h0c-.74.75-1.47,1.51-2.21,2.26,0,.11,0,.22,0,.33,0-.11,0-.22,0-.33.74-.75,1.47-1.51,2.21-2.26Zm-10.07,26.74c.39-1.1.77-2.21,1.16-3.31h0c-.38,1.1-.77,2.21-1.15,3.31h0c-1.09,2.98-2.19,5.96-3.28,8.95,1.09-2.98,2.19-5.96,3.28-8.95Zm-7.74,22.32c0-.09,0-.18,0-.27,0,.09,0,.18,0,.27,3.35-.37,6.69-.74,10.04-1.12,1.11-1.49,2.23-2.97,3.34-4.46-1.11,1.49-2.23,2.97-3.34,4.46-3.34.37-6.69.74-10.04,1.12-.39,1.47-.78,2.95-1.18,4.42.39-1.47.78-2.95,1.18-4.42Zm-9.98,51.25c1.34,6.34,2.89,12.65,4.36,18.96.66,1.66,1.33,3.33,1.99,4.99-.66-1.66-1.33-3.33-1.99-4.99-1.47-6.32-3.01-12.62-4.36-18.96Zm70.2,141.45s.04-.04.04-.04h0l-.04.04Zm157.05,74.69c1.49,0,2.97.01,4.46.02h0c.14,0,.29,0,.43,0-.14,0-.29,0-.43,0l-4.46-.02Zm6.64.03h0c.1.18.19.37.29.55-.1-.18-.19-.37-.29-.55Zm5.59-.24c.25-.07.49-.16.72-.27-.23.11-.47.2-.72.27Zm23.39-102.29v-5.57c-.65-.64-1.31-1.29-1.97-1.93.66.64,1.32,1.29,1.98,1.93,0,1.86,0,3.71-.01,5.57Zm1.37-45.76c.08.9.18,1.79.28,2.69-.1-.9-.2-1.79-.28-2.69Zm-.23-36.68c.37,0,.75,0,1.12,0h0c-.37,0-.75,0-1.12,0Zm26.29-56.36c-.21,1.34-.47,2.67-.66,4.01l.44,3.98c-.15-1.33-.29-2.65-.44-3.98.18-1.34.44-2.67.66-4.01Zm.43,16.26c.38.37.75.74,1.13,1.11,0-.74.01-1.48.02-2.22h0s.14,0,.27,0h-.27c0,.74-.01,1.48-.02,2.22-.38-.37-.75-.74-1.13-1.11h0Zm-2.15,8.93h0c-.24-.02-.47-.05-.71-.07.24.02.47.05.71.07Zm-1.19,17.79c0-.28,0-.56.01-.84,0,.28,0,.56-.01.84h0c-.44,1.35-1.05,2.69-1.48,4.04.44-1.35,1.05-2.69,1.48-4.04Zm-4.45,35.67c0-.74,0-1.49,0-2.23,0,.74,0,1.49,0,2.23,0,1.11-.01,2.21-.02,3.32l.02-3.32Zm-2.21,81.31c.01-1.09.02-2.18.03-3.27-.01,1.09-.02,2.18-.03,3.27.34.37.69.75,1.03,1.12-.34,3.71-.68,7.42-1.02,11.13,0,1.13,0,2.26,0,3.39,0-1.13,0-2.26,0-3.39.34-3.71.68-7.42,1.02-11.13-.35-.37-.69-.75-1.04-1.12Zm71.22,71.53c1.75-.61,3.71-.87,5.52-1.38.05-.35.09-.7.11-1.06.34-.4.69-.81,1.03-1.21-.34.4-.69.81-1.03,1.21-.02.35-.06.71-.11,1.06-1.81.51-3.77.77-5.52,1.38Zm15.77-17.63s0,0,0,0c-1.88,2.86-3.99,5.6-5.55,8.62,1.56-3.02,3.67-5.76,5.55-8.62Zm38.95-20.43c-2.78.55-5.57,1.03-8.33,1.61,2.77-.58,5.56-1.06,8.33-1.61,1.13-1.11,2.25-2.22,3.38-3.34-1.13,1.11-2.25,2.22-3.38,3.34Zm31.97-27.34c2.6-2.13,4.61-4.81,7-7.17.47-.48.94-.96,1.42-1.43-.47.48-.94.96-1.42,1.43-2.39,2.37-4.4,5.04-7,7.17Zm17.02-17.24c-2.6,2.6-5.2,5.21-7.8,7.81h0c2.6-2.6,5.2-5.21,7.8-7.81,1.11-.75,2.22-1.5,3.33-2.25-1.11.75-2.22,1.5-3.33,2.25Zm21.2-27.85c-.01.73-.03,1.47-.04,2.2.01-.73.03-1.47.04-2.2,1.04-.9,2.36-1.67,3.4-2.56-1.04.9-2.36,1.67-3.4,2.56Zm16.67-28.92c.36-.77.72-1.54,1.07-2.32-1.23-7.49-2.48-14.98-3.62-22.48,1.14,7.5,2.39,14.99,3.62,22.48-.36.77-.72,1.54-1.07,2.31Zm3.42-13.47c-.02.39-.04.78-.06,1.17,0,1.1,0,2.2-.01,3.3,0-1.1,0-2.2.01-3.3.02-.39.04-.78.06-1.17.35-.73.69-1.46,1.04-2.19,0,0,0-.02,0-.03v.03c-.34.73-.68,1.46-1.03,2.19Zm1.03-2.23s0-.03,0-.03h0v.03Zm-1.5-10.56c.4.69,1.19,1.27,2.62,1.67h0c-1.43-.4-2.22-.98-2.62-1.67Zm-.33-1.34c0,.2.02.39.06.58-.04-.19-.06-.38-.06-.58Zm6.31-24.84c-.76,9.28-1.51,18.56-2.27,27.84.76-9.28,1.51-18.56,2.27-27.84.37-2.6.74-5.2,1.1-7.8-.37,2.6-.74,5.2-1.1,7.8Zm2.24-25.64c0-3.35.01-6.7.02-10.05,0,3.35-.01,6.7-.02,10.05,0,3.72-.02,7.43-.03,11.15,0-3.72.02-7.43.03-11.15Z"/>
        <path class="cls-3" d="m184.47,278.33s0,0,0,0c0,0,.02-.02.03-.03l-.03.03Z"/>
        <path class="cls-3" d="m339.99,334.53c-.56,1.86-3.4,3.04-5.18,4.54.02.58.04,1.16.07,1.75,5.9-1.23,11.81-2.46,17.71-3.69,2.24-.74,4.47-1.48,6.71-2.22l4.27-3.25c2.27-2.97,4.54-5.94,6.81-8.91h0c1.5-2.2,3-4.4,4.78-7.01-1.18-.98-2.38-1.98-3.57-2.97-2.21-.38-4.42-.76-6.63-1.14-.83-1.34-1.43-3.1-2.36-4.28.93,1.19,1.52,2.94,2.36,4.28,2.21.38,4.42.76,6.63,1.14-.42-1.07-.84-2.14-1.25-3.22,0,0,.02.01.02.01-4.19-3.14-8.38-6.29-12.57-9.43,0,0-.22-.13-.22-.13-2.38-.98-4.76-1.96-7.14-2.94-.78-.23-1.55-.47-2.33-.7-4.4-2.03-8.8-4.05-13.21-6.08-.75.09-1.51.19-2.26.28,11.5,13.13,12.09,28.19,7.37,43.97Zm19.35-13.95c.92-1.1,1.85-2.21,2.78-3.33-.94,1.12-1.86,2.22-2.78,3.33h0Zm-11.15,14.49c-.79-.09-1.59-.18-2.42-.27.83.09,1.62.18,2.42.27,2.23-.74,4.47-1.48,6.7-2.22h0s0,0,0,0h0s0,0,0,0c-2.23.74-4.47,1.48-6.7,2.22Zm18.94-12.26c-.73.37-1.47.74-2.2,1.11-.75,1.11-1.5,2.23-2.25,3.35h0c-1.12,1.47-2.23,2.94-3.35,4.4-1.1.02-2.2.04-3.31.06-.38.37-.76.74-1.14,1.11h0c-.25-.99-.53-1.97-.79-2.95.26.99.55,1.97.79,2.95.38-.37.76-.74,1.14-1.11,1.1-.02,2.2-.04,3.31-.07.74-1.47,1.49-2.94,2.23-4.4-.74,1.47-1.49,2.94-2.23,4.4,1.12-1.47,2.23-2.93,3.35-4.4,0,0,0,0,0,0,.75-1.11,1.5-2.23,2.25-3.35.73-.37,1.47-.74,2.2-1.11.14,0,.27,0,.41,0-.14,0-.27,0-.41,0Z"/>
        <path class="cls-3" d="m275.47,332.03v-.06c.44.68.9,1.35,1.35,2.03,0,0-.01,0-.02,0,1.47,1.63,2.94,3.25,4.42,4.88-.07.28.01.48.26.62,1.45,1.48,2.9,2.97,4.35,4.45,0,0,0,.01,0,.01.4.36.8.72,1.2,1.08,8.46-2.7,16.91-5.39,25.37-8.09,1.12-.73,2.25-1.47,3.37-2.2.38-.3.77-.6,1.15-.9h-.04c3.74-4.44,7.48-8.89,11.21-13.33.09-.35.08-.7-.03-1.04-3.66-7.06-7.32-14.12-10.98-21.18-1.89-.49-3.77-1.06-5.68-1.47,1.91.41,3.79.97,5.68,1.47.05-3.31.11-6.61.16-9.92h0c.29-.79.58-1.57.88-2.36-7.16,1.13-14.31,3.11-21.47,3.16-7.15.04-12.81,2.23-17.89,6.82-.28.37-.55.74-.83,1.11-1.44,2.3-2.89,4.59-4.33,6.89-.53,1.25-1.07,2.5-1.59,3.75.89-.91,1.77-1.83,2.66-2.74l.56-.56-.56.56c-.88.91-1.76,1.83-2.66,2.74.07.29.28.49.63.61,0,0,0,.01,0,.02-.93,1.68-1.87,3.35-2.82,5.02-.29.92-.59,1.83-.88,2.75,1.72,5.49.45,12.21,6.53,15.91Zm6.63-32.39c-.7.86-1.01,2.2-.76,4.23,0,0,0,0,0,0h0s0,0,0,0c-.25-2.02.06-3.36.76-4.22Zm21.68-.12h0c.3-1.65.85-2.6,1.56-3.1.29-.2.6-.33.93-.41-.33.08-.64.21-.93.41-.71.5-1.26,1.46-1.56,3.1Zm-5.76-3.19c-.16-.14-.34-.24-.53-.3-.37-.12-.78-.09-1.18.11.4-.2.81-.24,1.18-.11.19.06.36.16.53.3Zm18.76,8.64c.11.34.19.69.24,1.05,2.88,4.04,6.08,8.08,4.32,13.48-2.8,8.61-7.75,14.96-17.72,15.41-1.09.1-2.18.19-3.27.29-1.51.73-3.02,1.46-4.54,2.19.08,2.46-.73,3.62-1.95,4.1-.31.12-.64.2-.99.25.35-.05.68-.13.99-.25,1.22-.49,2.03-1.65,1.95-4.1-9.03-2.36-12.1-9.29-14.67-17.44-1.58-5.02-.96-9.28.22-13.89.91-.65,1.82-1.29,2.73-1.94.57-.42,1.15-.84,1.72-1.27,2.47-1.4,4.94-2.8,7.41-4.21-.38-.02-.77-.05-1.15-.07.38.02.77.05,1.15.07.51-.16,1.02-.32,1.53-.48,0,0,0,0,0,0,1.48,2.21,2.97,4.42,4.45,6.63.35.14.69.28,1.04.42,1.18-1.89,2.35-3.78,3.53-5.66,0,0,0,0,0,0h0s0,0,0,0c5.36-.64,10.12.14,13.01,5.42Zm-8.33-8.89c.39.08.78.18,1.18.28-.4-.11-.79-.2-1.18-.28Zm-34.91,14.47h0c.35-.28.7-.57,1.1-.89-.4.33-.75.61-1.1.89Z"/>
        <path class="cls-3" d="m260.99,343.9c3.22.49,4.83-1.46,2.69-4.78.12-.24.1-.46-.09-.65-.37-.45-.74-.9-1.1-1.35,0,0,.1.06.1.06-.04-.34,0-.67.12-.99-.44-1.5-.88-2.99-1.32-4.49-.42-.69-.84-1.38-1.26-2.07-.29-.41-.58-.82-.87-1.23-.1-1.85-.2-3.7-.31-5.54-.31-2.97-.61-5.94-.92-8.91.33-.04.65-.11.96-.21.58-3.35,1.13-6.7,1.75-10.04.88-4.73,1.82-9.46,2.73-14.18-.33-.14-.66-.17-1-.07-1.91.74-3.81,1.52-5.74,2.21-4.11,1.47-8.23,2.9-12.35,4.35h0c-.99.1-1.98.2-2.97.29-8,5.82-16,11.65-23.99,17.47.51.07,1.02.14,1.53.21,4.83-3.01,9.65-6.01,14.48-9.02.87-.53,1.75-1.05,2.63-1.57,1.76-1.04,3.51-2.08,5.25-3.15-1.74,1.07-3.49,2.11-5.25,3.15-.88.52-1.75,1.04-2.63,1.57-.04.43-.08.86-.12,1.29.04-.43.08-.86.12-1.29-4.83,3.01-9.65,6.01-14.48,9.02-.37,2.2-.74,4.4-1.1,6.6.37-2.2.74-4.4,1.1-6.6-.51-.07-1.02-.14-1.53-.21-1.76,2.19-3.52,4.38-5.27,6.57-1.65,1.44-3.3,2.89-5,4.38,1.71,1.54,2.87,2.59,4.02,3.63,2.95,1.17,5.89,2.33,8.84,3.5,0,0,0,0-.01-.01,3.7,2.2,7.15,5.38,11.16,6.39,9.8,2.48,19.83,4.15,29.84,5.69Zm-4.15-30.02c.19,0,.39.02.58.03-.2,0-.39-.02-.58-.03-.09-.09-.18-.18-.27-.28.09.09.18.18.27.28Zm-7.06-17.76c.69,0,1.38,0,2.06,0-.69.01-1.38.01-2.06,0Zm-35.28,25.58h0s0,0,0,0Z"/>
        <path class="cls-3" d="m302.49,314.1c-1.51-1.17-3.01-2.34-4.52-3.51-1.1.69-2.19,1.37-3.29,2.06-4.53,1.01-3.16,3.99-2.28,6.81.44,1.09.89,2.17,1.33,3.26,1.21.28,2.61,1.1,3.58.75,2.19-.8,4.86-1.73,5.97-3.48.71-1.11,3.64-4.58-.79-5.89Z"/>
      </g>
    </g>
  </g>
</svg>