<?xml version="1.0" encoding="UTF-8"?>
<svg id="Layer_2" data-name="Layer 2" xmlns="http://www.w3.org/2000/svg" viewBox="0 0 64 64">
  <defs>
    <style>
      .cls-1 {
        fill: #fff;
      }
    </style>
  </defs>
  <path class="cls-1" d="m32.26,41.36l-4.6-3.94,3.23-4.95-3.6-3.81,4.16-6.59c-1.1-1.26-3.5-3.2-7.64-2.76-5.4.56-10.83,7.01-5.67,15.57,3.23,5.36,9.58,9.55,12.42,11.24l1.7-4.75Z"/>
  <path class="cls-1" d="m40.17,19.3h.02c-2.19-.23-3.89.21-5.18.86l-5.2,8.25,3.61,3.83-3.13,4.8,4.31,3.7-2.11,5.92c2.03-1.14,9.71-5.73,13.35-11.79,5.16-8.56-.27-15.01-5.67-15.57Z"/>
</svg>