<?xml version="1.0" encoding="UTF-8"?>
<svg id="Layer_2" data-name="Layer 2" xmlns="http://www.w3.org/2000/svg" viewBox="0 0 64 64">
  <defs>
    <style>
      .cls-1 {
        fill: #eda30f;
      }
    </style>
  </defs>
  <g id="GSzexS">
    <g>
      <path class="cls-1" d="m36.8,49.34c-1.75-.03-3.94-.85-6.04-1.96-3.67-1.94-6.82-4.55-9.77-7.45-1.48-1.45-3.07-2.79-4.6-4.19-.82-.76-.95-1.79-.39-2.67.64-1.02,1.97-1.32,2.94-.59,1.53,1.15,3.02,2.36,4.52,3.54.07.05.15.1.21.16.21.21.46.33.68.09.25-.27.04-.48-.17-.66-1.2-1.08-2.41-2.16-3.61-3.24-1.65-1.48-3.3-2.96-4.93-4.45-.97-.89-1.05-2.14-.22-3.04.8-.88,2.09-.87,3.06,0,2.47,2.22,4.95,4.43,7.42,6.65.05.05.1.09.16.14.14.12.28.25.46.08.21-.2.04-.35-.1-.48-.77-.77-1.53-1.55-2.3-2.32-2.15-2.15-4.3-4.3-6.44-6.46-.91-.91-.96-2.15-.12-3.01.85-.86,2.15-.84,3.05.06,2.74,2.73,5.47,5.47,8.21,8.2.09.09.17.18.26.26.2.17.42.28.66.06.23-.22.14-.44-.03-.65-.78-1.02-1.56-2.04-2.35-3.05-1.24-1.6-2.48-3.2-3.71-4.8-1.05-1.36-.61-2.94.96-3.47.77-.26,1.68.04,2.24.76,2.11,2.72,4.22,5.45,6.32,8.18,1.12,1.46,2.37,2.78,3.97,3.74.44.26.91.46,1.4.59,1.22.32,2.15-.12,2.67-1.26.29-.63.36-1.31.59-1.96.74-2.06,2.17-3.45,4.19-4.25,1.12-.44,2.25.06,2.56,1.11.19.63-.08,1.18-.38,1.7-.88,1.54-1.48,3.18-1.71,4.94-.18,1.41-.07,2.8.17,4.19.55,3.2.72,6.39-.77,9.43-.84,1.71-1.98,3.2-3.45,4.41-1.43,1.19-3.12,1.72-5.65,1.69Z"/>
      <path class="cls-1" d="m9.15,36.69c-.07-.25-.07-.51.26-.57.4-.08.4.27.43.51.28,1.88,1.11,3.46,2.54,4.71,1.16,1,2.5,1.61,4.02,1.79.28.03.5.12.45.45-.05.3-.3.3-.54.28-3.6-.34-6.82-3.55-7.17-7.16Z"/>
      <path class="cls-1" d="m32.01,13.77c1.83.24,3.42.98,4.75,2.27,1.38,1.34,2.18,2.98,2.44,4.89.03.24.06.48-.24.54-.33.07-.41-.15-.45-.43-.38-2.61-1.72-4.55-4.05-5.8-.72-.38-1.48-.63-2.29-.74-.09-.01-.17-.03-.26-.04-.25-.04-.47-.13-.43-.42.04-.29.28-.32.54-.28Z"/>
      <path class="cls-1" d="m31.73,16.73c1.7.07,3.61,1.59,4.23,3.37.13.38.22.78.31,1.17.06.27-.05.47-.32.5-.25.03-.35-.15-.39-.39-.39-2.2-1.68-3.52-3.89-3.94-.22-.04-.48-.09-.44-.41.03-.32.27-.32.51-.3Z"/>
      <path class="cls-1" d="m12.11,36.41c0-.28-.06-.54.28-.57.31-.03.36.21.4.45.33,1.78,1.3,3.04,3.03,3.67.26.1.54.17.81.2.29.04.57.1.5.45-.06.35-.39.32-.65.26-2.16-.45-3.61-1.71-4.25-3.84-.07-.22-.15-.43-.12-.62Z"/>
    </g>
  </g>
</svg>